<?xml version="1.0" encoding="UTF-8"?>
<svg version="1.1" viewBox="0 0 1100 550" xmlns="http://www.w3.org/2000/svg">
	<title>Signal transmission</title>

	<!-- White background -->
	<rect width="1100" height="550" fill="#fff"/>

	<!-- Round stroke, width 2 -->
	<g stroke-linecap="round" stroke-linejoin="round" stroke-width="2">

		<!-- Gray boxes -->
		<g fill="#f2f2f2" stroke="#f2f2f2">
			<rect x="843" y="177" width="182" height="160"/>
			<rect x="78" y="177" width="182" height="160"/>
		</g>

		<!-- Elements with black stroke -->
		<g stroke="#1a1a1a">

			<!-- Line segments and curves -->
			<g fill="none">
				<path d="m297 264h-37"/>
				<path d="m300 261v-32"/>
				<path d="m300 299v-32"/>
				<path d="m300 229h30"/>
				<path d="m330 206v46l46-23z"/>
				<path d="m300 299h30"/>
				<path d="m330 276v46l46-23z"/>
				<circle cx="384" cy="229" r="8"/>
				<path d="m498 210c-2 7-6 11-9 19s-5 13-5 20 1 10 4 15 4 8 4 15-2 12-5 20l-9 19"/>
				<path d="m392 229h97"/>
				<path d="m376 299h111"/>
				<path d="m508 210c-2 7-6 11-9 19s-5 13-5 20 1 10 4 15 4 8 4 15-2 12-5 20l-9 19"/>
				<path d="m497 299h195"/>
				<path d="m499 229h193"/>
				<path d="m692 206v116l99-58z"/>
				<path d="m703 287h12"/>
				<path d="m703 241h12"/>
				<path d="m709 281v12"/>
				<path d="m791 264h52"/>
				<path d="m98 238v79h122"/>
				<path d="m435 363v48h122"/>
				<path d="m435 99v34h122"/>
				<path d="m435 133v69"/>
				<path d="m863 238v79h122"/>
				<path d="m98 317c17-11 19-48 31-57 6-4 15-4 27-4 18 0 23 1 28 8 12 17 13 53 36 53"/>
				<path d="m435 411c17-11 19-48 31-57 6-4 15-4 27-4 18 0 23 1 28 8 12 17 13 53 36 53"/>
				<path d="m435 133c17 11 19 48 31 57 6 4 15 4 27 4 18 0 23-1 28-8 12-17 13-53 36-53"/>
				<path d="m863 317c17-21 19-99 31-116 6-8 15-8 27-8 18 0 23 1 28 16 12 35 13 108 36 108"/>
			</g>

			<!-- Arrows and node -->
			<g fill="#1a1a1a">
				<path d="m92 238h12l-6-24z"/>
				<path d="m220 311v12l24-6z"/>
				<path d="m429 363h12l-6-24z"/>
				<path d="m557 405v12l24-6z"/>
				<path d="m429 99h12l-6-24z"/>
				<path d="m557 127v12l24-6z"/>
				<path d="m857 238h12l-6-24z"/>
				<path d="m985 311v12l24-6z"/>
				<circle cx="300" cy="264" r="3"/>
			</g>

		</g>

	</g>



	<!-- Text -->
	<g fill="#1a1a1a" font-size="28" >

		<!-- Signal descriptions -->
		<g font-family="sans" font-weight="500">
			<text x="119" y="375">Sender</text>
			<text x="878" y="375">Receiver</text>
			<text x="420" y="55">Inverted signal</text>
			<text x="400" y="455">Non-inverted signal</text>
		</g>

		<!-- t for time -->
		<g font-family="serif" font-style="italic">
			<text x="227" y="304">t</text>
			<text x="564" y="398">t</text>
			<text x="561" y="166">t</text>
			<text x="992" y="304">t</text>
		</g>

	</g>
</svg>
