<?xml version="1.0" encoding="utf-8"?>
<!-- Generator: Adobe Illustrator 23.0.6, SVG Export Plug-In . SVG Version: 6.00 Build 0)  -->
<svg version="1.1" id="Ebene_1" xmlns="http://www.w3.org/2000/svg" xmlns:xlink="http://www.w3.org/1999/xlink" x="0px" y="0px"
	 viewBox="0 0 841.9 595.3" style="enable-background:new 0 0 841.9 595.3;" xml:space="preserve">
<style type="text/css">
	.st0{fill:#FABB00;}
	.st1{fill:#999999;}
	.st2{fill:#4B4B4D;}
</style>
<title>2019_Wärmeverlust_Haus-RGB_zw</title>
<path class="st0" d="M622.1,345c1.4,1.4,2.2,3.3,2.2,5.3c0,2-0.8,3.8-2.2,5.2c-1.4,1.4-3.3,2.2-5.3,2.1c-4,0-7.3-3.2-7.3-7.2
	c0,0,0-0.1,0-0.1c0-2,0.7-3.9,2.1-5.3c1.3-1.4,3.2-2.2,5.2-2.2C618.9,342.8,620.8,343.6,622.1,345z"/>
<path class="st0" d="M634.8,326.8c1.4,1.4,2.3,3.2,2.3,5.2c0,2-0.8,3.8-2.2,5.2c-1.4,1.4-3.3,2.2-5.3,2.1c-4,0-7.3-3.2-7.3-7.2
	c0,0,0,0,0-0.1c0-2,0.7-3.9,2.1-5.3c1.3-1.4,3.2-2.2,5.2-2.2C631.5,324.5,633.4,325.3,634.8,326.8z"/>
<path class="st0" d="M647.4,308.5c1.4,1.4,2.2,3.3,2.2,5.3c0,2-0.8,3.8-2.2,5.2c-1.4,1.4-3.3,2.2-5.3,2.1c-4,0-7.3-3.2-7.3-7.2
	c0,0,0,0,0-0.1c0-2,0.7-3.9,2.1-5.3c1.3-1.4,3.2-2.2,5.2-2.2C644.1,306.3,646,307.1,647.4,308.5z"/>
<path class="st0" d="M625.3,308.5c1.4,1.4,2.2,3.3,2.2,5.3c0,2-0.8,3.8-2.2,5.2c-1.4,1.4-3.3,2.2-5.3,2.1c-4,0-7.3-3.2-7.3-7.2
	c0,0,0,0,0-0.1c0-2,0.7-3.9,2.1-5.3c1.3-1.4,3.2-2.2,5.2-2.2C622,306.3,623.9,307.1,625.3,308.5z"/>
<path class="st0" d="M603.2,308.5c1.4,1.4,2.2,3.3,2.2,5.3c0,2-0.8,3.8-2.2,5.2c-1.4,1.4-3.3,2.2-5.3,2.1c-4,0-7.3-3.2-7.3-7.2
	c0,0,0,0,0-0.1c0-2,0.7-3.9,2.1-5.3c1.3-1.4,3.2-2.2,5.2-2.2C600,306.3,601.9,307.1,603.2,308.5z"/>
<path class="st0" d="M581.2,308.5c1.4,1.4,2.2,3.3,2.2,5.3c0,2-0.8,3.8-2.2,5.2c-1.4,1.4-3.3,2.2-5.3,2.1c-4,0-7.3-3.2-7.3-7.2
	c0,0,0,0,0-0.1c0-2,0.7-3.9,2.1-5.3c1.3-1.4,3.2-2.2,5.2-2.2C577.9,306.3,579.8,307.1,581.2,308.5z"/>
<path class="st0" d="M559.1,308.5c1.4,1.4,2.2,3.3,2.2,5.3c0,2-0.8,3.8-2.2,5.2c-1.4,1.4-3.3,2.2-5.3,2.1c-4,0-7.3-3.2-7.3-7.2
	c0,0,0,0,0-0.1c0-2,0.7-3.9,2.1-5.3c1.3-1.4,3.2-2.2,5.2-2.2C555.8,306.3,557.7,307.1,559.1,308.5z"/>
<path class="st0" d="M537,308.5c1.4,1.4,2.2,3.3,2.2,5.3c0,2-0.8,3.8-2.2,5.2c-1.4,1.4-3.3,2.2-5.3,2.1c-4,0-7.3-3.2-7.3-7.2
	c0,0,0-0.1,0-0.1c0-2,0.7-3.9,2.1-5.3c1.3-1.4,3.2-2.2,5.2-2.2C533.7,306.3,535.6,307.1,537,308.5z"/>
<path class="st0" d="M634.8,290.3c1.4,1.4,2.3,3.3,2.3,5.3c0,2-0.8,3.8-2.2,5.2c-1.4,1.4-3.3,2.2-5.3,2.1c-4,0-7.3-3.3-7.3-7.3
	c0,0,0,0,0,0c0-2,0.7-3.9,2.1-5.3c1.3-1.4,3.2-2.3,5.1-2.3C631.5,288,633.4,288.8,634.8,290.3z"/>
<path class="st0" d="M622.1,272c1.4,1.4,2.2,3.3,2.2,5.3c0,2-0.8,3.8-2.2,5.2c-1.4,1.4-3.3,2.2-5.3,2.1c-4,0-7.3-3.2-7.3-7.2
	c0,0,0-0.1,0-0.1c0-2,0.7-3.9,2.1-5.3c1.3-1.4,3.2-2.2,5.2-2.2C618.9,269.8,620.8,270.6,622.1,272z"/>
<path class="st1" d="M448.2,229.8c-1.3-1.2-3-1.9-4.8-2l-57.9,0.5c-1.8,0.1-3.5,0.8-4.9,2l-13.2,13.1c-1.1,1.1-2,0.7-2-0.8v-7
	c0-1.6-1.3-2.8-2.8-2.8h-8c-1.6,0-2.8,1.3-2.8,2.8v17.9c-0.1,1.8-0.8,3.5-2,4.9L329.8,279c-1.1,1.1-1.1,2.9,0,4l4.3,4.3
	c1.1,1.1,2.9,1.1,4,0l42.4-41.3c1.1-1.1,2.9-1.1,4,0c0,0,0,0,0,0l39.3,41.5c1.3,1.2,3,1.9,4.8,2l76-1c1.6,0,1.9-0.9,0.8-2
	L448.2,229.8z"/>
<path class="st1" d="M468.8,260.2c1.1,1.1,0.7,2-0.9,2h-12c-1.8-0.1-3.5-0.8-4.8-2.1l-7.6-8.1c-1.1-1.1-0.6-2.1,0.9-2.1h11.4
	c1.8,0.1,3.5,0.8,4.8,2L468.8,260.2z"/>
<path class="st1" d="M449.4,260.1c1.1,1.1,0.7,2.1-0.9,2.1h-12.4c-1.8-0.1-3.5-0.8-4.8-2.1l-7.6-8.1c-1.1-1.1-0.6-2.1,0.9-2.1H437
	c1.8,0.1,3.5,0.8,4.8,2.1L449.4,260.1z"/>
<path class="st1" d="M442.7,236.4c1.8,0.1,3.5,0.8,4.8,2l8.1,8.3c1.1,1.1,0.7,2-0.9,2h-11.4c-1.8-0.1-3.5-0.8-4.8-2.1l-7.5-8.1
	c-1.1-1.1-0.6-2.1,0.9-2.1L442.7,236.4z"/>
<path class="st1" d="M436.8,246.6c1.1,1.1,0.6,2.1-0.9,2.1h-12.4c-1.8-0.1-3.5-0.8-4.8-2.1l-7.4-8c-1.1-1.1-0.6-2.1,0.9-2.1
	l12.3-0.1c1.8,0.1,3.5,0.8,4.8,2.1L436.8,246.6z"/>
<path class="st1" d="M390.8,238.6c-1.1-1.1-0.7-2.1,0.9-2h13.1c1.8,0.1,3.5,0.8,4.8,2.1l7.4,8c1.1,1.1,0.7,2.1-0.9,2.1h-12.9
	c-1.8-0.1-3.5-0.8-4.8-2.1L390.8,238.6z"/>
<path class="st1" d="M403.3,251.9c-1.1-1.1-0.7-2.1,0.9-2.1h12.9c1.8,0.1,3.5,0.9,4.8,2.1l7.6,8.2c1.1,1.1,0.7,2.1-0.9,2.1h-12.8
	c-1.8-0.1-3.5-0.8-4.8-2.1L403.3,251.9z"/>
<path class="st1" d="M416.2,265.8c-1.1-1.1-0.7-2.1,0.9-2.1H430c1.8,0.1,3.5,0.8,4.8,2.1l7.6,8.3c1.1,1.1,0.6,2.1-0.9,2.1h-12.7
	c-1.8-0.1-3.5-0.8-4.8-2.1L416.2,265.8z"/>
<path class="st1" d="M449,276.1c-1.8-0.1-3.5-0.8-4.8-2.1l-7.7-8.3c-1.1-1.1-0.6-2.1,0.9-2.1h12.4c1.8,0.1,3.5,0.8,4.8,2.1l7.6,8.2
	c1.1,1.1,0.7,2.1-0.9,2.1L449,276.1z"/>
<path class="st1" d="M456.4,265.8c-1.1-1.1-0.6-2.1,0.9-2.1h11.5c1,0.1,1.9,0,2.8-0.3c0-0.2,0.9,0.6,2,1.7l8.6,8.9
	c1.1,1.1,0.7,2-0.9,2h-12.6c-1.8-0.1-3.5-0.8-4.8-2.1L456.4,265.8z"/>
<path class="st1" d="M345.7,267.1h7.7c1.1,0,2.1,0.9,2.1,2.1v70.3c0,1.1-0.9,2.1-2.1,2.1h-7.7c-1.1,0-2.1-0.9-2.1-2.1v-70.3
	C343.6,268,344.5,267.1,345.7,267.1z"/>
<path class="st1" d="M484.3,282.7h8.2c1,0,1.8,0.8,1.8,1.8v55.1c0,1-0.8,1.8-1.8,1.8h-8.2c-1,0-1.8-0.8-1.8-1.8v-55.1
	C482.5,283.5,483.3,282.7,484.3,282.7z"/>
<path class="st1" d="M424.3,284.2h8c1,0,1.8,0.8,1.8,1.8v53.7c0,1-0.8,1.8-1.8,1.8h-8c-1,0-1.8-0.8-1.8-1.8V286
	C422.5,285,423.3,284.2,424.3,284.2z"/>
<path class="st1" d="M336,347h165.6c1.7,0,3.1,1.4,3.1,3.1v5.6c0,1.7-1.4,3.1-3.1,3.1H336c-1.7,0-3.1-1.4-3.1-3.1v-5.6
	C332.8,348.4,334.2,347,336,347z"/>
<path class="st0" d="M570,192.4c1.6,0,3.1,0.6,4.2,1.7c1.1,1.1,1.7,2.6,1.7,4.2c0,1.6-0.6,3.1-1.8,4.2c-2.3,2.3-5.9,2.3-8.2,0
	c0,0,0,0,0,0c-1.1-1.1-1.8-2.6-1.8-4.2c0-1.6,0.6-3.1,1.7-4.2C566.9,193,568.5,192.3,570,192.4z"/>
<path class="st0" d="M566.9,174.9c1.6,0,3.1,0.6,4.2,1.7c1.1,1.1,1.7,2.6,1.7,4.2c0,1.6-0.6,3.1-1.8,4.2c-2.3,2.3-6,2.3-8.2,0
	c0,0,0,0,0,0c-1.1-1.1-1.8-2.6-1.8-4.2c-0.1-1.6,0.6-3.1,1.7-4.2C563.7,175.5,565.3,174.9,566.9,174.9z"/>
<path class="st0" d="M563.7,157.4c1.6,0,3.1,0.6,4.2,1.7c1.1,1.1,1.7,2.6,1.7,4.2c0,1.6-0.6,3.1-1.8,4.2c-2.3,2.3-5.9,2.3-8.2,0
	c0,0,0,0,0,0c-1.1-1.1-1.8-2.6-1.8-4.2c-0.1-1.6,0.6-3.1,1.7-4.2C560.6,158,562.1,157.4,563.7,157.4z"/>
<path class="st0" d="M551.2,169.9c1.6,0,3.1,0.6,4.2,1.7c1.1,1.1,1.7,2.6,1.7,4.2c0,1.6-0.6,3.1-1.8,4.2c-2.3,2.3-6,2.3-8.2,0
	c0,0,0,0,0,0c-1.1-1.1-1.8-2.6-1.8-4.2c-0.1-1.6,0.6-3.1,1.7-4.2C548.1,170.5,549.6,169.9,551.2,169.9z"/>
<path class="st0" d="M538.7,182.4c1.6,0,3.1,0.6,4.2,1.7c1.1,1.1,1.7,2.6,1.7,4.2c0,1.6-0.6,3.1-1.8,4.2c-2.3,2.3-5.9,2.3-8.2,0
	c0,0,0,0,0,0c-1.1-1.1-1.8-2.6-1.8-4.2c-0.1-1.6,0.6-3.1,1.7-4.2C535.6,183,537.1,182.4,538.7,182.4z"/>
<path class="st0" d="M526.2,194.9c1.6,0,3.1,0.6,4.2,1.7c1.1,1.1,1.7,2.6,1.7,4.2c0,1.6-0.6,3.1-1.8,4.2c-2.3,2.3-6,2.3-8.2,0
	c0,0,0,0,0,0c-1.1-1.1-1.8-2.6-1.8-4.2c-0.1-1.6,0.5-3.1,1.7-4.2C523.1,195.5,524.6,194.8,526.2,194.9z"/>
<path class="st0" d="M513.7,207.4c1.6,0,3.1,0.6,4.2,1.7c1.1,1.1,1.7,2.6,1.7,4.2c0,1.6-0.6,3.1-1.8,4.2c-2.3,2.3-5.9,2.3-8.2,0
	c0,0,0,0,0,0c-1.1-1.1-1.8-2.6-1.8-4.2c-0.1-1.6,0.6-3.1,1.7-4.2C510.6,207.9,512.2,207.3,513.7,207.4z"/>
<path class="st0" d="M501.3,219.8c1.6,0,3.1,0.6,4.2,1.7c1.1,1.1,1.7,2.6,1.7,4.2c0,1.6-0.6,3.1-1.8,4.2c-2.3,2.3-6,2.3-8.2,0
	c0,0,0,0,0,0c-1.1-1.1-1.8-2.6-1.8-4.2c-0.1-1.6,0.6-3.1,1.7-4.2C498.1,220.4,499.7,219.8,501.3,219.8z"/>
<path class="st0" d="M546.2,154.2c1.6,0,3.1,0.6,4.2,1.7c1.1,1.1,1.7,2.6,1.7,4.2c0,1.6-0.6,3.1-1.8,4.2c-2.3,2.3-6,2.3-8.2,0
	c0,0,0,0,0,0c-1.1-1.1-1.8-2.6-1.8-4.2c0-1.6,0.6-3,1.7-4.1C543.1,154.9,544.6,154.2,546.2,154.2z"/>
<path class="st0" d="M528.7,151.1c1.6,0,3.1,0.6,4.2,1.7c1.1,1.1,1.7,2.6,1.7,4.2c0,1.6-0.6,3.1-1.8,4.2c-2.2,2.3-5.9,2.3-8.2,0.1
	c0,0,0,0-0.1-0.1c-1.1-1.1-1.8-2.6-1.8-4.2c-0.1-1.6,0.5-3.1,1.7-4.2C525.6,151.6,527.1,151,528.7,151.1z"/>
<path class="st0" d="M226.9,288.6c-1.1-1.1-1.8-2.6-1.8-4.2c0-1.6,0.6-3.1,1.8-4.1c1.1-1.1,2.6-1.7,4.2-1.7c3.2,0,5.8,2.6,5.8,5.8
	c0,0,0,0.1,0,0.1c0,1.6-0.6,3.1-1.7,4.2c-1.1,1.1-2.6,1.8-4.1,1.8C229.5,290.4,228,289.7,226.9,288.6z"/>
<path class="st0" d="M216.8,303.2c-1.1-1.1-1.8-2.6-1.8-4.2c0-1.6,0.6-3.1,1.8-4.1c1.1-1.1,2.6-1.7,4.2-1.7c3.2,0,5.8,2.6,5.8,5.8
	c0,0,0,0,0,0c0,1.6-0.6,3.1-1.7,4.2c-1,1.1-2.5,1.8-4.1,1.8C219.4,305,217.9,304.4,216.8,303.2z"/>
<path class="st0" d="M206.6,317.8c-1.1-1.1-1.8-2.6-1.8-4.2c0-1.6,0.6-3.1,1.8-4.1c1.1-1.1,2.6-1.7,4.2-1.7c3.2,0,5.8,2.6,5.8,5.8
	c0,0,0,0,0,0c0,1.6-0.6,3.1-1.7,4.2c-1.1,1.1-2.6,1.8-4.1,1.8C209.3,319.6,207.7,319,206.6,317.8z"/>
<path class="st0" d="M224.3,317.8c-1.1-1.1-1.8-2.6-1.8-4.2c0-1.6,0.6-3.1,1.8-4.1c1.1-1.1,2.6-1.7,4.2-1.7c3.2,0,5.8,2.6,5.8,5.8
	c0,0,0,0,0,0c0,1.6-0.6,3.1-1.7,4.2c-1.1,1.1-2.6,1.8-4.1,1.8C226.9,319.6,225.4,319,224.3,317.8z"/>
<path class="st0" d="M242,317.8c-1.1-1.1-1.8-2.6-1.8-4.2c0-1.6,0.6-3.1,1.8-4.1c1.1-1.1,2.6-1.7,4.2-1.7c3.2,0,5.8,2.6,5.8,5.8
	c0,0,0,0,0,0c0,1.6-0.6,3.1-1.7,4.2c-1.1,1.1-2.6,1.8-4.1,1.8C244.6,319.6,243.1,319,242,317.8z"/>
<path class="st0" d="M259.6,317.8c-1.1-1.1-1.8-2.6-1.8-4.2c0-1.6,0.6-3.1,1.8-4.1c1.1-1.1,2.6-1.7,4.2-1.7c3.2,0,5.8,2.6,5.9,5.8
	c0,0,0,0,0,0c0,1.6-0.6,3.1-1.7,4.2c-1.1,1.1-2.6,1.8-4.1,1.8C262.2,319.6,260.7,319,259.6,317.8z"/>
<path class="st0" d="M277.3,317.8c-1.1-1.1-1.8-2.6-1.8-4.2c0-1.6,0.6-3.1,1.8-4.1c1.1-1.1,2.6-1.7,4.2-1.7c3.2,0,5.8,2.6,5.8,5.8
	c0,0,0,0,0,0c0,1.6-0.6,3.1-1.7,4.2c-1.1,1.1-2.6,1.8-4.1,1.8C279.9,319.6,278.4,319,277.3,317.8z"/>
<path class="st0" d="M294.9,317.8c-1.1-1.1-1.8-2.6-1.8-4.2c0-1.6,0.6-3.1,1.8-4.1c1.1-1.1,2.6-1.7,4.2-1.7c3.2,0,5.8,2.6,5.9,5.8
	c0,0,0,0,0,0c0,1.6-0.6,3.1-1.7,4.2c-1.1,1.1-2.6,1.8-4.1,1.8C297.5,319.6,296,319,294.9,317.8z"/>
<path class="st0" d="M216.8,332.4c-1.1-1.1-1.8-2.6-1.8-4.2c0-1.6,0.6-3.1,1.8-4.1c1.1-1.1,2.6-1.7,4.2-1.7c3.2,0,5.8,2.6,5.9,5.8
	c0,0,0,0,0,0c0,1.6-0.6,3.1-1.7,4.2c-1.1,1.1-2.5,1.8-4.1,1.8C219.4,334.2,217.9,333.6,216.8,332.4z"/>
<path class="st0" d="M226.9,347c-1.1-1.1-1.8-2.6-1.8-4.2c0-1.6,0.6-3.1,1.8-4.1c1.1-1.1,2.6-1.7,4.2-1.7c3.2,0,5.8,2.6,5.8,5.8
	c0,0,0,0.1,0,0.1c0,1.6-0.6,3.1-1.7,4.2c-1.1,1.1-2.6,1.8-4.1,1.8C229.5,348.8,228,348.2,226.9,347z"/>
<path class="st0" d="M306,173.5c0-1.2,0.4-2.3,1.3-3.2c0.8-0.8,2-1.3,3.1-1.3c1.2,0,2.3,0.5,3.1,1.3c1.7,1.7,1.7,4.5,0,6.2
	c0,0,0,0,0,0c-0.8,0.8-2,1.3-3.1,1.3c-1.2,0-2.3-0.4-3.1-1.3C306.4,175.8,306,174.7,306,173.5z"/>
<path class="st0" d="M292.9,175.9c0-1.2,0.4-2.3,1.3-3.2c0.8-0.8,2-1.3,3.1-1.3c1.2,0,2.3,0.5,3.1,1.3c1.7,1.7,1.7,4.5,0,6.2
	c0,0,0,0,0,0c-0.8,0.8-2,1.3-3.1,1.3c-1.2,0-2.3-0.4-3.1-1.3C293.3,178.2,292.9,177,292.9,175.9z"/>
<path class="st0" d="M279.8,178.3c0-1.2,0.4-2.3,1.3-3.2c0.8-0.8,2-1.3,3.1-1.3c1.2,0,2.3,0.5,3.1,1.3c0.8,0.8,1.3,1.9,1.3,3.1
	c0,1.2-0.5,2.3-1.3,3.1c-0.8,0.8-2,1.3-3.1,1.3c-1.2,0-2.3-0.4-3.1-1.3C280.2,180.6,279.7,179.4,279.8,178.3z"/>
<path class="st0" d="M289.1,187.6c0-1.2,0.4-2.3,1.3-3.2c0.8-0.8,2-1.3,3.1-1.3c1.2,0,2.3,0.5,3.1,1.3c1.7,1.7,1.7,4.5,0,6.2
	c0,0,0,0,0,0c-0.8,0.8-2,1.3-3.1,1.3c-1.2,0-2.3-0.4-3.1-1.3C289.6,189.9,289.1,188.8,289.1,187.6z"/>
<path class="st0" d="M298.5,197c0-1.2,0.4-2.3,1.3-3.2c0.8-0.8,2-1.3,3.1-1.3c1.2,0,2.3,0.5,3.1,1.3c1.7,1.7,1.7,4.5,0,6.2
	c0,0,0,0,0,0c-0.8,0.9-1.9,1.3-3.1,1.3c-1.2,0-2.3-0.4-3.1-1.3C298.9,199.3,298.5,198.2,298.5,197z"/>
<path class="st0" d="M307.9,206.3c0-1.2,0.4-2.3,1.3-3.2c0.8-0.8,2-1.3,3.1-1.3c1.2,0,2.3,0.5,3.1,1.3c0.8,0.8,1.3,1.9,1.3,3.1
	c0,1.2-0.4,2.3-1.3,3.1c-0.8,0.8-2,1.3-3.1,1.3c-1.2,0-2.3-0.4-3.1-1.3C308.3,208.7,307.8,207.5,307.9,206.3z"/>
<path class="st0" d="M317.2,215.7c0-1.2,0.4-2.3,1.3-3.2c0.8-0.8,2-1.3,3.1-1.3c1.2,0,2.3,0.5,3.1,1.3c1.7,1.7,1.7,4.5,0,6.2
	c0,0,0,0,0,0c-0.8,0.8-2,1.3-3.1,1.3c-1.2,0-2.3-0.4-3.1-1.3C317.7,218,317.2,216.9,317.2,215.7z"/>
<path class="st0" d="M326.6,225.1c0-1.2,0.4-2.3,1.3-3.2c0.8-0.8,2-1.3,3.1-1.3c1.2,0,2.3,0.5,3.1,1.3c1.7,1.7,1.7,4.5,0,6.2
	c0,0,0,0,0,0c-0.8,0.8-2,1.3-3.1,1.3c-1.2,0-2.3-0.4-3.1-1.3C327,227.4,326.6,226.2,326.6,225.1z"/>
<path class="st0" d="M277.4,191.4c0-1.2,0.4-2.3,1.3-3.2c0.8-0.8,2-1.3,3.1-1.3c1.2,0,2.3,0.5,3.1,1.3c1.7,1.7,1.7,4.4,0.1,6.1
	c0,0,0,0-0.1,0.1c-0.8,0.9-1.9,1.3-3.1,1.3c-1.2,0-2.3-0.4-3.1-1.3C277.8,193.7,277.4,192.5,277.4,191.4z"/>
<path class="st0" d="M275,204.5c0-1.2,0.4-2.3,1.3-3.2c0.8-0.8,2-1.3,3.1-1.3c1.2,0,2.3,0.5,3.1,1.3c1.7,1.7,1.7,4.4,0.1,6.1
	c0,0,0,0-0.1,0.1c-0.8,0.8-1.9,1.3-3.1,1.3c-1.2,0-2.3-0.4-3.1-1.3C275.4,206.8,275,205.6,275,204.5z"/>
<path class="st0" d="M392.6,471.2c-1.1,1.1-2.6,1.8-4.2,1.8c-1.6,0-3.1-0.6-4.1-1.8c-1.1-1.1-1.7-2.6-1.7-4.2c0-3.2,2.6-5.8,5.8-5.9
	c0,0,0,0,0,0c1.6,0,3.1,0.6,4.2,1.7c1.1,1.1,1.8,2.6,1.8,4.1C394.4,468.6,393.7,470.1,392.6,471.2z"/>
<path class="st0" d="M407.2,481.3c-1.1,1.1-2.6,1.8-4.2,1.8c-1.6,0-3.1-0.6-4.1-1.8c-1.1-1.1-1.7-2.6-1.7-4.2c0-3.2,2.6-5.8,5.8-5.8
	c0,0,0,0,0.1,0c1.6,0,3.1,0.6,4.2,1.7c1.2,1.1,1.8,2.6,1.8,4.1C409,478.7,408.3,480.2,407.2,481.3z"/>
<path class="st0" d="M421.8,491.4c-1.1,1.1-2.6,1.8-4.2,1.8c-1.6,0-3.1-0.6-4.1-1.8c-1.1-1.1-1.7-2.6-1.7-4.2c0-3.2,2.6-5.8,5.8-5.8
	c0,0,0,0,0.1,0c1.6,0,3.1,0.6,4.2,1.7c1.2,1.1,1.8,2.6,1.8,4.1C423.6,488.8,422.9,490.3,421.8,491.4z"/>
<path class="st0" d="M421.8,473.8c-1.1,1.1-2.6,1.8-4.2,1.8c-1.6,0-3.1-0.6-4.1-1.8c-1.1-1.1-1.7-2.6-1.7-4.2c0-3.2,2.6-5.8,5.8-5.8
	c0,0,0,0,0.1,0c1.6,0,3.1,0.6,4.2,1.7c1.1,1.1,1.8,2.6,1.8,4.1C423.6,471.1,422.9,472.7,421.8,473.8z"/>
<path class="st0" d="M421.8,456.1c-1.1,1.1-2.6,1.8-4.2,1.8c-1.6,0-3.1-0.6-4.1-1.8c-1.1-1.1-1.7-2.6-1.7-4.2c0-3.2,2.6-5.8,5.8-5.9
	c0,0,0,0,0,0c1.6,0,3.1,0.6,4.2,1.7c1.1,1.1,1.8,2.6,1.8,4.1C423.6,453.5,422.9,455,421.8,456.1z"/>
<path class="st0" d="M421.8,438.4c-1.1,1.1-2.6,1.8-4.2,1.8c-1.6,0-3.1-0.6-4.1-1.8c-1.1-1.1-1.7-2.6-1.7-4.2c0-3.2,2.6-5.8,5.8-5.8
	c0,0,0,0,0.1,0c1.6,0,3.1,0.6,4.2,1.7c1.1,1.1,1.8,2.6,1.8,4.1C423.6,435.8,422.9,437.3,421.8,438.4z"/>
<path class="st0" d="M421.8,420.8c-1.1,1.1-2.6,1.8-4.2,1.8c-1.6,0-3.1-0.6-4.1-1.8c-1.1-1.1-1.7-2.6-1.7-4.2c0-3.2,2.6-5.8,5.8-5.9
	c0,0,0,0,0,0c1.6,0,3.1,0.6,4.2,1.7c1.2,1.1,1.8,2.6,1.8,4.1C423.6,418.2,422.9,419.7,421.8,420.8z"/>
<path class="st0" d="M421.8,403.1c-1.1,1.1-2.6,1.8-4.2,1.8c-1.6,0-3.1-0.6-4.1-1.8c-1.1-1.1-1.7-2.6-1.7-4.2c0-3.2,2.6-5.8,5.8-5.8
	c0,0,0,0,0.1,0c1.6,0,3.1,0.6,4.2,1.7c1.1,1.1,1.8,2.6,1.8,4.1C423.6,400.5,422.9,402,421.8,403.1z"/>
<path class="st0" d="M436.4,481.3c-1.1,1.1-2.6,1.8-4.2,1.8c-1.6,0-3.1-0.6-4.1-1.8c-1.1-1.1-1.7-2.6-1.7-4.2c0-3.2,2.6-5.8,5.8-5.8
	c0,0,0,0,0.1,0c1.6,0,3.1,0.6,4.2,1.7c1.1,1.1,1.8,2.6,1.8,4.1C438.2,478.7,437.6,480.2,436.4,481.3z"/>
<path class="st0" d="M451,471.2c-1.1,1.1-2.6,1.8-4.2,1.8c-1.6,0-3.1-0.6-4.1-1.8c-1.1-1.1-1.7-2.6-1.7-4.2c0-3.2,2.6-5.8,5.8-5.8
	c0,0,0,0,0.1,0c1.6,0,3.1,0.6,4.2,1.7c1.1,1.1,1.8,2.6,1.8,4.1C452.8,468.6,452.2,470.1,451,471.2z"/>
<path class="st0" d="M197.1,140.3h4.7v-16.1c-0.8,0.5-1.7,1-2.6,1.4c-0.9,0.4-1.8,0.8-2.8,1.1l-1.4-2.9l8.3-5.8h3.6v22.3h3.5v4.4
	h-13.4V140.3z"/>
<path class="st0" d="M232,135.7c0,1.4-0.3,2.8-0.9,4.1c-0.6,1.2-1.5,2.3-2.6,3.2c-1.2,0.9-2.5,1.7-4,2.1c-1.6,0.5-3.4,0.8-5.1,0.8
	c-0.6,0-1.1,0-1.5,0c-0.5-0.1-1-0.1-1.5-0.2l-1.2-4c0.7,0.2,1.3,0.3,2,0.4c0.6,0.1,1.2,0.1,1.7,0.1c1,0,2-0.1,2.9-0.4
	c0.8-0.3,1.6-0.7,2.3-1.2c0.6-0.5,1.1-1.1,1.5-1.9c0.4-0.7,0.5-1.5,0.5-2.4c0.1-1.1-0.4-2.3-1.2-3.1c-0.9-0.8-2-1.2-3.2-1.2
	c-0.9,0-1.7,0.1-2.6,0.3c-1.1,0.2-2.2,0.5-3.3,0.9l1.3-15.2H231l-0.8,4.6h-7.8l-0.6,5.4c0.4-0.1,0.8-0.1,1-0.2c0.3,0,0.6,0,0.9,0
	c1.2,0,2.3,0.2,3.4,0.6c1,0.3,1.9,0.9,2.7,1.6c0.7,0.7,1.3,1.5,1.7,2.4C231.9,133.6,232,134.6,232,135.7z"/>
<path class="st0" d="M252.2,126.3c-0.3,0.8-0.8,1.6-1.4,2.2c-0.6,0.6-1.3,1-2.1,1.4c-0.9,0.4-1.9,0.5-2.9,0.5
	c-1.8,0.1-3.6-0.6-4.9-1.9c-1.3-1.4-1.9-3.2-1.8-5c0-1,0.1-1.9,0.5-2.8c0.3-0.8,0.8-1.6,1.4-2.2c0.6-0.6,1.3-1.1,2.1-1.4
	c0.9-0.3,1.8-0.5,2.8-0.5c1.9-0.1,3.8,0.6,5.1,2c0.6,0.6,1,1.3,1.3,2.1c0.3,0.9,0.4,1.9,0.4,2.8
	C252.6,124.4,252.5,125.4,252.2,126.3z M247.4,120.1c-0.4-0.4-1.1-0.7-1.7-0.6c-0.9-0.1-1.7,0.4-2,1.2c-0.1,0.4-0.2,0.7-0.3,1.1
	c-0.1,0.5-0.1,1-0.1,1.5c-0.1,1,0.1,2,0.4,3c0.2,0.3,0.5,0.6,0.8,0.7c0.4,0.2,0.8,0.3,1.2,0.3c0.7,0.1,1.4-0.3,1.8-0.9
	c0.4-1,0.6-2,0.6-3.1C248.2,121.7,247.9,120.6,247.4,120.1z M245.4,144.7l14.6-27.8h3.8l-14.6,27.8L245.4,144.7z M269.7,141.1
	c-0.3,0.8-0.8,1.6-1.4,2.2c-0.6,0.6-1.3,1-2.1,1.4c-0.9,0.4-1.9,0.5-2.9,0.5c-1.8,0.1-3.6-0.6-4.9-1.9c-1.3-1.4-1.9-3.2-1.8-5
	c0-1,0.1-1.9,0.5-2.8c0.3-0.8,0.8-1.6,1.4-2.2c0.6-0.6,1.3-1.1,2.1-1.4c0.9-0.3,1.8-0.5,2.8-0.5c1.9-0.1,3.8,0.6,5.1,2
	c0.6,0.6,1,1.3,1.3,2.1c0.3,0.9,0.4,1.9,0.4,2.8C270.2,139.1,270,140.1,269.7,141.1L269.7,141.1z M264.9,134.8
	c-0.4-0.4-1.1-0.7-1.7-0.6c-0.9-0.1-1.7,0.4-2,1.2c-0.1,0.4-0.2,0.7-0.3,1.1c-0.1,0.5-0.1,1-0.1,1.5c-0.1,1,0.1,2,0.4,3
	c0.2,0.3,0.5,0.6,0.8,0.7c0.4,0.2,0.8,0.3,1.2,0.3c0.7,0.1,1.4-0.3,1.8-0.9c0.4-1,0.6-2,0.6-3.1
	C265.7,136.4,265.5,135.4,264.9,134.8L264.9,134.8z"/>
<path class="st2" d="M199.2,168.7v-13.9h2.9v11.6h5l-0.5,2.3L199.2,168.7z"/>
<path class="st2" d="M214.4,168c-0.7,0.7-1.7,1-2.7,1c-0.7,0-1.3-0.1-1.9-0.5c-0.5-0.3-0.9-0.7-1.1-1.2c-0.1-0.3-0.1-0.5-0.2-0.8
	c0-0.3,0-0.7,0-1.2v-6.6l2.6-0.5v6.6c0,0.4,0,0.7,0.1,1.1c0,0.2,0.1,0.4,0.2,0.6c0.1,0.2,0.2,0.3,0.4,0.4c0.2,0.1,0.4,0.1,0.6,0.1
	c0.2,0,0.3,0,0.5-0.1c0.2-0.1,0.3-0.1,0.5-0.2c0.1-0.1,0.3-0.2,0.4-0.3c0.1-0.1,0.2-0.2,0.3-0.4v-7.2l2.6-0.5v7.7
	c0,0.3,0.1,0.7,0.2,1c0.1,0.3,0.3,0.6,0.5,0.9l-1.9,1.1C214.9,168.7,214.6,168.4,214.4,168z M211.4,157.1c-0.6,0.6-1.6,0.6-2.1,0
	c0,0,0,0,0,0c-0.6-0.6-0.6-1.6,0-2.2c0,0,0,0,0,0c0.3-0.3,0.7-0.5,1.1-0.4c0.4,0,0.8,0.2,1.1,0.4c0.3,0.3,0.5,0.7,0.4,1.1
	C211.8,156.4,211.6,156.8,211.4,157.1L211.4,157.1z M215.7,157.1c-0.6,0.6-1.6,0.6-2.2,0c0,0,0,0,0,0c-0.3-0.3-0.4-0.7-0.4-1.1
	c0-0.4,0.2-0.8,0.4-1.1c0.3-0.3,0.7-0.5,1.1-0.4c0.4,0,0.8,0.2,1.1,0.4c0.3,0.3,0.5,0.7,0.4,1.1C216.1,156.4,216,156.8,215.7,157.1
	L215.7,157.1z"/>
<path class="st2" d="M223.3,155.9c-0.1,0-0.3-0.1-0.4-0.1c-0.3,0-0.6,0.1-0.8,0.3c-0.2,0.2-0.3,0.5-0.3,0.9v1.5h2.6l-0.7,1.8h-1.9
	v8.4h-2.6v-8.4h-0.9v-1.8h1c0-0.2,0-0.4-0.1-0.7s0-0.5,0-0.7c-0.1-0.9,0.3-1.7,0.9-2.4c0.7-0.6,1.5-0.9,2.4-0.8c0.4,0,0.8,0,1.2,0.1
	c0.4,0.1,0.8,0.3,1.2,0.5l-0.9,1.7C223.7,156,223.5,156,223.3,155.9z"/>
<path class="st2" d="M228.9,168.9c-0.6,0-1.2-0.1-1.8-0.4c-0.5-0.2-0.8-0.6-1-1.1l-0.1-0.3c0-0.1,0-0.2-0.1-0.3c0-0.1,0-0.3,0-0.4
	s0-0.4,0-0.6v-5.6h-1v-1.8h1c0-0.5,0-0.9,0-1.3c0-0.4,0-0.8,0.1-1.1l2.7-0.7c-0.1,0.5-0.1,1-0.1,1.5s0,1.1,0,1.6h2.4l-0.7,1.8h-1.7
	v5.1c0,0.3,0,0.5,0,0.8c0,0.2,0.1,0.4,0.2,0.5c0.1,0.1,0.2,0.2,0.4,0.3c0.2,0,0.4,0.1,0.6,0.1c0.1,0,0.3,0,0.4-0.1l0.6-0.1l0.3,1.6
	C230.3,168.7,229.6,168.9,228.9,168.9z"/>
<path class="st2" d="M238.4,168c-0.7,0.7-1.7,1-2.7,1c-0.7,0-1.3-0.1-1.9-0.5c-0.5-0.2-0.9-0.7-1.1-1.2c-0.1-0.3-0.1-0.5-0.2-0.8
	c0-0.3-0.1-0.7-0.1-1.2v-6.6l2.6-0.5v6.6c0,0.4,0,0.7,0.1,1.1c0,0.2,0.1,0.4,0.2,0.6c0.1,0.2,0.2,0.3,0.4,0.4
	c0.2,0.1,0.4,0.1,0.6,0.1c0.2,0,0.3,0,0.5-0.1c0.2-0.1,0.3-0.1,0.5-0.2c0.1-0.1,0.3-0.2,0.4-0.3c0.1-0.1,0.2-0.2,0.3-0.4v-7.2
	l2.6-0.5v7.7c0,0.3,0.1,0.7,0.2,1c0.1,0.3,0.3,0.6,0.5,0.9l-1.9,1.1C238.9,168.7,238.6,168.4,238.4,168z"/>
<path class="st2" d="M248.5,162c0-0.4,0-0.8-0.2-1.2c-0.2-0.2-0.4-0.3-0.7-0.3c-0.3,0-0.6,0.1-0.9,0.3c-0.4,0.2-0.7,0.4-1,0.7v7.2
	H243v-7.4c0-0.8-0.1-1.6-0.4-2.4l2.4-0.7c0.2,0.4,0.4,0.8,0.4,1.3l0.6-0.4c0.2-0.1,0.4-0.3,0.6-0.4c0.3-0.2,0.6-0.3,0.9-0.3
	c0.3-0.1,0.6-0.1,0.9-0.1c0.5,0,1.1,0.1,1.5,0.4c0.4,0.2,0.7,0.6,0.9,1.1c0.2,0.5,0.2,1,0.2,1.5v7.5h-2.6L248.5,162z"/>
<path class="st2" d="M262.9,160.1c-0.3,0.1-0.7,0.2-1,0.2h-0.4h-0.3c0.4,0.5,0.6,1.1,0.6,1.7c0,0.4-0.1,0.8-0.3,1.2
	c-0.2,0.4-0.5,0.7-0.8,1c-0.4,0.3-0.8,0.5-1.2,0.6c-0.5,0.2-1,0.2-1.5,0.2h-0.3h-0.1c-0.3,0.1-0.5,0.3-0.8,0.4
	c-0.2,0.1-0.3,0.2-0.3,0.4c0,0.2,0.1,0.2,0.4,0.2h1.4c0.6,0,1.3,0.1,1.9,0.2c0.5,0.1,0.9,0.4,1.2,0.7c0.6,0.6,0.9,1.4,0.9,2.2
	c0,0.8-0.3,1.5-0.8,2.1c-0.5,0.5-1.1,0.8-1.8,1c-0.7,0.2-1.5,0.3-2.3,0.3c-0.7,0-1.4-0.1-2.1-0.2c-0.6-0.1-1.2-0.4-1.7-0.9
	c-0.5-0.5-0.8-1.1-0.8-1.8c0-0.3,0-0.5,0.1-0.8c0-0.1,0.1-0.3,0.2-0.4h2.5c0,0.1-0.1,0.2-0.1,0.3c0,0.1,0,0.2,0,0.4
	c0,0.8,0.6,1.3,1.9,1.3c0.3,0,0.6,0,0.9-0.1c0.3,0,0.5-0.1,0.7-0.3c0.2-0.1,0.4-0.3,0.5-0.4c0.1-0.2,0.2-0.4,0.2-0.6
	c0.1-0.4-0.2-0.8-0.5-1c-0.4-0.2-0.9-0.3-1.3-0.3h-1.1c-0.8,0-1.7-0.1-2.5-0.3c-0.2-0.1-0.4-0.3-0.6-0.5c-0.1-0.3-0.2-0.6-0.2-0.9
	c0-0.2,0-0.3,0.1-0.5c0-0.2,0.1-0.3,0.3-0.5c0.2-0.2,0.3-0.3,0.6-0.4c0.3-0.2,0.7-0.3,1-0.4c-1.4-0.2-2.3-1.5-2.2-2.8
	c0-0.5,0.1-1,0.3-1.4c0.2-0.4,0.5-0.8,0.9-1.1c0.4-0.3,0.9-0.6,1.4-0.7c0.6-0.2,1.2-0.3,1.8-0.3c0.3,0,0.6,0,0.9,0.1
	c0.3,0,0.7,0.1,1,0.2l0.7,0.2c0.2,0,0.4,0.1,0.5,0.1c0.4,0,0.8-0.1,1.1-0.2c0.4-0.2,0.7-0.4,1-0.6l1.1,1.7
	C263.6,159.8,263.3,160,262.9,160.1z M258.6,160.6c-0.3-0.3-0.8-0.4-1.2-0.4c-0.4,0-0.9,0.1-1.2,0.4c-0.3,0.3-0.4,0.7-0.4,1.1
	c0,0.4,0.1,0.8,0.4,1.1c0.3,0.2,0.7,0.4,1.1,0.3c1.1,0,1.6-0.5,1.6-1.5C259.1,161.3,258.9,160.9,258.6,160.6L258.6,160.6z"/>
<path class="st0" d="M108,317.3v-3.8c0.4-0.4,0.9-0.8,1.5-1.4l1.8-1.8l1.8-1.9c0.3-0.3,0.6-0.6,0.9-0.9c0.3-0.3,0.5-0.5,0.7-0.8
	c0.8-0.8,1.5-1.7,2.2-2.7c0.5-0.7,0.9-1.4,1.3-2.2c0.3-0.6,0.5-1.2,0.7-1.8c0.1-0.5,0.2-1,0.2-1.5c0.1-1-0.3-2.1-1-2.8
	c-0.7-0.5-1.5-0.8-2.3-0.8c-0.9,0-1.8,0.2-2.6,0.6c-1.1,0.5-2.1,1.2-3,2l-2.9-3.4c1.3-1.2,2.9-2.2,4.6-2.9c1.8-0.7,3.6-1,5.5-1
	c1.1,0,2.2,0.2,3.2,0.6c0.9,0.4,1.8,0.9,2.5,1.6c0.7,0.7,1.2,1.5,1.6,2.4c0.4,1,0.6,2,0.5,3.1c0,1.6-0.5,3.1-1.3,4.4
	c-1,1.7-2.1,3.2-3.4,4.7c-0.6,0.7-1.3,1.4-2.2,2.3s-1.7,1.7-2.6,2.5c-0.2,0.2-0.5,0.5-0.8,0.7c-0.2,0.2-0.5,0.4-0.8,0.6l0.9-0.1
	l1.1-0.1h1.2h1.1h8l-1.2,4.5L108,317.3z"/>
<path class="st0" d="M147.8,304c0,1.9-0.2,3.9-0.7,5.7c-0.4,1.6-1.1,3-2,4.4c-0.8,1.2-1.8,2.1-3,2.8c-1.2,0.7-2.5,1-3.8,1
	c-1.4,0-2.8-0.3-4-1c-1.2-0.7-2.2-1.6-3-2.8c-0.9-1.3-1.5-2.8-1.9-4.3c-0.5-1.9-0.7-3.8-0.7-5.7c0-1.9,0.2-3.9,0.7-5.7
	c0.4-1.6,1.1-3,2-4.4c0.8-1.1,1.8-2.1,3-2.8c1.2-0.7,2.5-1,3.9-1c1.4,0,2.7,0.3,3.9,1c1.2,0.7,2.2,1.6,3,2.8
	c0.9,1.3,1.5,2.8,1.9,4.3C147.6,300.2,147.8,302.1,147.8,304z M141.8,304.2c0-1.7-0.1-3.3-0.3-5c-0.1-1-0.4-2.1-0.7-3.1
	c-0.2-0.6-0.6-1.1-1.1-1.5c-0.4-0.3-0.9-0.4-1.4-0.4c-0.6,0-1.3,0.2-1.7,0.7c-0.5,0.6-0.9,1.3-1.1,2c-0.3,1-0.5,2.1-0.6,3.1
	c-0.1,1.2-0.2,2.5-0.2,4c0,1.7,0.1,3.3,0.3,5c0.1,1,0.4,2.1,0.7,3.1c0.2,0.6,0.6,1.1,1.1,1.5c0.4,0.3,0.9,0.4,1.4,0.4
	c0.6,0,1.3-0.3,1.7-0.7c0.5-0.6,0.9-1.3,1.1-2c0.3-1,0.5-2.1,0.6-3.1C141.7,307,141.8,305.6,141.8,304.2L141.8,304.2z"/>
<path class="st0" d="M166.9,299c-0.3,0.8-0.8,1.6-1.4,2.2c-0.6,0.6-1.3,1-2.1,1.4c-0.9,0.4-1.9,0.5-2.9,0.5
	c-1.8,0.1-3.6-0.6-4.9-1.9c-1.3-1.4-1.9-3.2-1.8-5c0-1,0.2-1.9,0.5-2.8c0.3-0.8,0.8-1.6,1.4-2.2c0.6-0.6,1.3-1.1,2.1-1.4
	c0.9-0.3,1.8-0.5,2.8-0.5c1.9-0.1,3.8,0.6,5.1,2c0.6,0.6,1,1.3,1.3,2.1c0.3,0.9,0.4,1.9,0.4,2.8C167.3,297.1,167.2,298.1,166.9,299z
	 M162.1,292.8c-0.5-0.4-1.1-0.7-1.7-0.6c-0.9-0.1-1.7,0.4-2,1.2c-0.1,0.4-0.2,0.7-0.3,1.1c-0.1,0.5-0.1,1-0.1,1.5
	c-0.1,1,0.1,2,0.4,3c0.2,0.3,0.5,0.6,0.8,0.7c0.4,0.2,0.8,0.3,1.2,0.3c0.7,0.1,1.4-0.3,1.8-0.9c0.4-1,0.6-2,0.6-3.1
	C162.9,294.3,162.6,293.3,162.1,292.8L162.1,292.8z M160.1,317.4l14.6-27.8h3.8l-14.6,27.8H160.1z M184.4,313.8
	c-0.3,0.8-0.8,1.5-1.4,2.1c-0.6,0.6-1.3,1-2.1,1.4c-0.9,0.4-1.9,0.5-2.9,0.5c-1.8,0.1-3.6-0.6-4.9-1.9c-1.3-1.4-1.9-3.2-1.8-5
	c0-1,0.2-1.9,0.5-2.8c0.3-0.8,0.8-1.6,1.4-2.2c0.6-0.6,1.3-1.1,2.1-1.4c0.9-0.3,1.8-0.5,2.8-0.5c1.9-0.1,3.8,0.6,5.1,2
	c0.6,0.6,1,1.3,1.3,2.1c0.3,0.9,0.4,1.9,0.4,2.8C184.9,311.8,184.7,312.8,184.4,313.8L184.4,313.8z M179.6,307.5
	c-0.5-0.4-1.1-0.7-1.7-0.6c-0.9-0.1-1.7,0.4-2,1.2c-0.1,0.4-0.2,0.7-0.3,1.1c-0.1,0.5-0.1,1-0.1,1.5c-0.1,1,0.1,2,0.4,3
	c0.2,0.3,0.5,0.6,0.8,0.7c0.4,0.2,0.8,0.3,1.2,0.3c0.7,0.1,1.4-0.3,1.8-0.9c0.4-1,0.6-2,0.6-3.1C180.4,309.1,180.1,308,179.6,307.5
	L179.6,307.5z"/>
<path class="st2" d="M110,329.7v3.2h3.5v2.3H110v6.2h-2.8v-13.9h7.5l-0.3,2.3H110z"/>
<path class="st2" d="M118,337.1c0,0.7,0.2,1.3,0.6,1.8c0.4,0.4,1,0.7,1.6,0.6c1,0,1.9-0.4,2.6-1l1,1.6c-1.1,0.9-2.4,1.4-3.9,1.4
	c-0.7,0-1.4-0.1-2-0.4c-0.6-0.2-1.1-0.6-1.5-1.1c-0.4-0.5-0.8-1.1-1-1.7c-0.2-0.7-0.3-1.4-0.3-2.2c0-0.8,0.1-1.6,0.3-2.3
	c0.2-0.6,0.5-1.2,1-1.7c0.4-0.4,0.9-0.8,1.4-1c0.6-0.2,1.2-0.3,1.8-0.3c0.6,0,1.1,0.1,1.7,0.3c0.5,0.2,0.9,0.4,1.3,0.8
	c0.5,0.5,0.8,1.1,1,1.8c0.2,0.9,0.4,1.8,0.3,2.7v0.6L118,337.1L118,337.1z M121.1,334.1c0-0.2-0.1-0.4-0.3-0.6
	c-0.3-0.4-0.7-0.6-1.2-0.6c-0.5,0-0.9,0.2-1.2,0.6c-0.3,0.5-0.5,1.1-0.4,1.6l0,0h3.1V335C121.2,334.7,121.1,334.4,121.1,334.1
	L121.1,334.1z"/>
<path class="st2" d="M131.3,334.7c0-0.4,0-0.8-0.2-1.2c-0.2-0.2-0.4-0.3-0.7-0.3c-0.3,0-0.6,0.1-0.9,0.3c-0.4,0.2-0.7,0.4-1,0.7v7.2
	h-2.7v-7.4c0-0.8-0.1-1.6-0.4-2.4l2.4-0.7c0.2,0.4,0.4,0.8,0.4,1.3l0.6-0.4c0.2-0.1,0.4-0.3,0.6-0.4c0.3-0.2,0.6-0.3,0.9-0.3
	c0.3-0.1,0.6-0.1,0.9-0.1c0.5,0,1.1,0.1,1.5,0.4c0.4,0.2,0.7,0.6,0.9,1.1c0.1,0.5,0.2,1,0.2,1.5v7.5h-2.6L131.3,334.7z"/>
<path class="st2" d="M143.8,339.5c-0.2,0.4-0.5,0.8-0.9,1.1c-0.4,0.3-0.9,0.6-1.4,0.7c-0.6,0.2-1.2,0.3-1.8,0.3
	c-1.5-0.1-2.9-0.5-4.1-1.2l1-2c0.2,0.1,0.4,0.3,0.7,0.4c0.3,0.1,0.6,0.3,0.9,0.4c0.3,0.1,0.6,0.2,0.9,0.3c0.3,0.1,0.6,0.1,0.9,0.1
	c0.4,0,0.7-0.1,1-0.3c0.3-0.2,0.4-0.5,0.4-0.8c0-0.3-0.1-0.6-0.4-0.8c-0.4-0.2-0.8-0.4-1.2-0.5l-1.2-0.2c-0.4-0.1-0.7-0.2-1.1-0.4
	c-0.3-0.2-0.6-0.4-0.8-0.6c-0.2-0.2-0.3-0.5-0.4-0.8c-0.1-0.3-0.1-0.7-0.1-1c0-0.5,0.1-0.9,0.3-1.4c0.2-0.4,0.5-0.8,0.8-1.1
	c0.4-0.3,0.8-0.5,1.3-0.7c0.5-0.2,1.1-0.2,1.6-0.2c0.7,0,1.4,0.1,2.1,0.3c0.5,0.2,1.1,0.4,1.6,0.6l-0.9,1.8
	c-0.4-0.2-0.9-0.4-1.4-0.6c-0.4-0.1-0.8-0.2-1.2-0.2c-0.3,0-0.7,0.1-0.9,0.3c-0.2,0.2-0.4,0.4-0.4,0.7c0,0.2,0.1,0.5,0.3,0.6
	c0.3,0.2,0.6,0.3,1,0.4l1.3,0.3c0.5,0.1,0.9,0.3,1.4,0.5c0.3,0.2,0.5,0.4,0.7,0.6c0.4,0.5,0.6,1.1,0.6,1.7
	C144.1,338.6,144,339.1,143.8,339.5z"/>
<path class="st2" d="M149,341.6c-0.6,0-1.2-0.1-1.8-0.4c-0.5-0.2-0.8-0.6-1-1.1c0-0.1-0.1-0.2-0.1-0.3c0-0.1,0-0.2-0.1-0.3
	c0-0.1,0-0.2,0-0.4s0-0.4,0-0.6v-5.6h-1v-1.8h1c0-0.5,0-0.9,0-1.3c0-0.4,0-0.7,0.1-1.1l2.7-0.7c-0.1,0.5-0.1,1-0.1,1.5s0,1.1,0,1.6
	h2.4l-0.7,1.8h-1.8v5.1c0,0.3,0,0.5,0.1,0.8c0,0.2,0.1,0.4,0.2,0.5c0.1,0.1,0.2,0.2,0.4,0.3c0.2,0.1,0.4,0.1,0.6,0.1
	c0.1,0,0.3,0,0.4,0l0.6-0.1l0.3,1.6C150.5,341.4,149.7,341.6,149,341.6z"/>
<path class="st2" d="M154.8,337.1c0,0.7,0.2,1.3,0.6,1.8c0.4,0.4,1,0.7,1.6,0.6c1,0,1.9-0.4,2.6-1l1,1.6c-1.1,0.9-2.5,1.4-3.9,1.4
	c-0.7,0-1.4-0.1-2-0.4c-0.6-0.2-1.1-0.6-1.5-1.1c-0.4-0.5-0.8-1-1-1.7c-0.2-0.7-0.4-1.4-0.3-2.2c0-0.8,0.1-1.6,0.3-2.3
	c0.2-0.6,0.5-1.2,1-1.7c0.4-0.4,0.9-0.8,1.4-1c0.6-0.2,1.2-0.3,1.8-0.3c0.6,0,1.1,0.1,1.7,0.3c0.5,0.2,0.9,0.4,1.3,0.8
	c0.5,0.5,0.8,1.1,1,1.8c0.2,0.9,0.4,1.8,0.3,2.7v0.6L154.8,337.1L154.8,337.1z M157.9,334.1c0-0.2-0.1-0.4-0.3-0.6
	c-0.3-0.4-0.7-0.6-1.2-0.6c-0.5,0-0.9,0.2-1.2,0.6c-0.3,0.5-0.5,1.1-0.4,1.6l0,0h3.1V335C158,334.7,157.9,334.4,157.9,334.1
	L157.9,334.1z"/>
<path class="st2" d="M166.9,333.2c-0.6,0-1.2,0.3-1.6,0.9v7.2h-2.7v-6.8c0-0.6,0-1.2-0.1-1.8c0-0.4-0.1-0.8-0.3-1.2l2.4-0.6
	c0.2,0.4,0.4,0.9,0.4,1.5c0.3-0.4,0.6-0.7,1-1c0.4-0.3,0.9-0.4,1.4-0.4c0.2,0,0.3,0,0.5,0c0.2,0,0.3,0.1,0.5,0.2l-0.7,2.4
	C167.4,333.3,167.2,333.2,166.9,333.2z"/>
<path class="st2" d="M113,361.6c-0.7,0.7-1.7,1-2.7,1c-0.7,0-1.3-0.1-1.9-0.5c-0.5-0.2-0.9-0.7-1.1-1.2c-0.1-0.3-0.1-0.5-0.2-0.8
	c0-0.3,0-0.7,0-1.2v-6.6l2.6-0.5v6.6c0,0.4,0,0.7,0.1,1.1c0,0.2,0.1,0.4,0.2,0.6c0.1,0.2,0.2,0.3,0.4,0.4c0.2,0.1,0.4,0.1,0.6,0.1
	c0.2,0,0.3,0,0.5-0.1c0.2,0,0.3-0.1,0.5-0.2c0.2-0.1,0.3-0.2,0.4-0.3c0.1-0.1,0.2-0.2,0.3-0.4v-7.2l2.6-0.5v7.8c0,0.3,0.1,0.7,0.2,1
	c0.1,0.3,0.3,0.6,0.5,0.9l-1.9,1.1C113.5,362.4,113.2,362,113,361.6z"/>
<path class="st2" d="M123.2,355.7c0-0.4,0-0.8-0.2-1.2c-0.2-0.2-0.4-0.3-0.7-0.3c-0.3,0-0.6,0.1-0.9,0.3c-0.4,0.2-0.7,0.4-1,0.7v7.2
	h-2.7v-7.4c0-0.8-0.1-1.6-0.4-2.4l2.4-0.7c0.2,0.4,0.4,0.8,0.4,1.3l0.6-0.4c0.2-0.1,0.4-0.3,0.6-0.4c0.3-0.2,0.6-0.3,0.9-0.3
	c0.3-0.1,0.6-0.1,0.9-0.1c0.5,0,1.1,0.1,1.5,0.4c0.4,0.2,0.7,0.6,0.9,1.1c0.1,0.5,0.2,1,0.2,1.5v7.5h-2.6L123.2,355.7z"/>
<path class="st2" d="M134.3,361.7c-0.6,0.6-1.5,0.9-2.4,0.9c-0.6,0-1.2-0.1-1.8-0.4c-0.5-0.2-1-0.6-1.3-1c-0.4-0.5-0.7-1-0.9-1.6
	c-0.4-1.4-0.4-2.9,0-4.4c0.2-0.6,0.5-1.2,0.9-1.7c0.4-0.5,0.8-0.8,1.4-1.1c0.6-0.3,1.2-0.4,1.8-0.4c0.7,0,1.3,0.2,1.8,0.6
	c0-0.2-0.1-0.4-0.1-0.6c0-0.3,0-0.6,0-0.9v-3.5l2.6,0.4v10.6c0,0.6,0,1.2,0,1.6s0.1,0.8,0.1,1.1c0,0.2,0.1,0.5,0.1,0.7
	c0,0.1,0.1,0.3,0.1,0.4h-2.4C134.4,362.1,134.3,361.9,134.3,361.7z M132.5,354.1c-0.5,0-1.1,0.3-1.3,0.8c-0.3,0.8-0.5,1.7-0.4,2.5
	c0,0.5,0,0.9,0.1,1.4c0,0.3,0.1,0.6,0.3,0.9c0.1,0.2,0.3,0.4,0.6,0.5c0.3,0.1,0.6,0.2,0.9,0.1c0.3,0,0.5-0.1,0.7-0.2
	c0.2-0.1,0.4-0.3,0.6-0.5v-4.9C133.5,354.4,133,354.2,132.5,354.1L132.5,354.1z"/>
<path class="st2" d="M148.9,350.7v11.6H146v-11.6h-3.4v-2.3h10l-0.5,2.3H148.9z"/>
<path class="st2" d="M159.5,361.6c-0.7,0.7-1.7,1-2.7,1c-0.7,0-1.3-0.1-1.9-0.5c-0.5-0.2-0.9-0.7-1.1-1.2c-0.1-0.3-0.1-0.5-0.2-0.8
	c0-0.3-0.1-0.7-0.1-1.2v-6.6l2.6-0.5v6.6c0,0.4,0,0.7,0.1,1.1c0,0.2,0.1,0.4,0.2,0.6c0.1,0.2,0.2,0.3,0.4,0.4
	c0.2,0.1,0.4,0.1,0.6,0.1c0.2,0,0.3,0,0.5-0.1c0.2,0,0.3-0.1,0.5-0.2c0.1-0.1,0.3-0.2,0.4-0.3c0.1-0.1,0.2-0.2,0.3-0.4v-7.2l2.6-0.5
	v7.8c0,0.3,0.1,0.7,0.2,1c0.1,0.3,0.3,0.6,0.5,0.9l-1.9,1.1C159.9,362.4,159.7,362,159.5,361.6z M156.5,350.7
	c-0.6,0.6-1.6,0.6-2.2,0c-0.6-0.6-0.6-1.6,0-2.2c0.3-0.3,0.7-0.5,1.1-0.5c0.4,0,0.8,0.2,1.1,0.5c0.3,0.3,0.4,0.7,0.4,1.1
	C157,350.1,156.8,350.4,156.5,350.7L156.5,350.7z M160.8,350.7c-0.3,0.3-0.7,0.5-1.1,0.5c-0.4,0-0.8-0.2-1.1-0.5
	c-0.3-0.3-0.4-0.7-0.4-1.1c0-0.4,0.2-0.8,0.4-1.1c0.3-0.3,0.7-0.5,1.1-0.5c0.4,0,0.8,0.2,1.1,0.5
	C161.4,349.2,161.4,350.1,160.8,350.7L160.8,350.7z"/>
<path class="st2" d="M168.5,354.2c-0.6,0-1.2,0.3-1.6,0.9v7.2h-2.7v-6.8c0-0.6,0-1.2-0.1-1.8c0-0.4-0.1-0.8-0.3-1.2l2.4-0.6
	c0.2,0.4,0.4,0.9,0.4,1.5c0.3-0.4,0.6-0.7,1-1c0.4-0.3,0.9-0.4,1.4-0.4c0.2,0,0.3,0,0.5,0c0.2,0,0.3,0.1,0.5,0.2l-0.7,2.4
	C169,354.3,168.8,354.2,168.5,354.2z"/>
<path class="st2" d="M173.3,358.1c0,0.7,0.2,1.3,0.6,1.8c0.4,0.4,1,0.7,1.6,0.6c1,0,1.9-0.4,2.6-1l1,1.6c-1.1,0.9-2.5,1.4-3.9,1.4
	c-0.7,0-1.4-0.1-2-0.4c-0.6-0.2-1.1-0.6-1.5-1.1c-0.4-0.5-0.8-1-1-1.7c-0.2-0.7-0.3-1.4-0.3-2.2c0-0.8,0.1-1.6,0.3-2.3
	c0.2-0.6,0.5-1.2,1-1.7c0.4-0.4,0.9-0.8,1.4-1c0.6-0.2,1.2-0.3,1.8-0.3c0.6,0,1.1,0.1,1.7,0.3c0.5,0.2,0.9,0.4,1.3,0.8
	c0.5,0.5,0.8,1.1,1,1.8c0.2,0.9,0.4,1.8,0.3,2.7v0.6L173.3,358.1L173.3,358.1z M176.4,355.1c0-0.2-0.1-0.4-0.3-0.6
	c-0.3-0.4-0.7-0.6-1.2-0.6c-0.5,0-0.9,0.2-1.2,0.6c-0.3,0.5-0.5,1.1-0.4,1.6l0,0h3.1V356C176.5,355.7,176.4,355.4,176.4,355.1
	L176.4,355.1z"/>
<path class="st2" d="M186.5,355.7c0-0.4,0-0.8-0.2-1.2c-0.2-0.2-0.4-0.3-0.7-0.3c-0.3,0-0.6,0.1-0.9,0.3c-0.4,0.2-0.7,0.4-1,0.7v7.2
	h-2.7v-7.4c0-0.8-0.1-1.6-0.4-2.4l2.4-0.7c0.2,0.4,0.4,0.8,0.4,1.3l0.6-0.4c0.2-0.1,0.4-0.3,0.6-0.4c0.3-0.2,0.6-0.3,0.9-0.3
	c0.3-0.1,0.6-0.1,0.9-0.1c0.5,0,1.1,0.1,1.5,0.4c0.4,0.2,0.7,0.6,0.9,1.1c0.1,0.5,0.2,1,0.2,1.5v7.5h-2.6L186.5,355.7z"/>
<path class="st0" d="M478.7,470.9h4.7v-16.1c-0.8,0.5-1.6,0.9-2.6,1.4c-0.9,0.4-1.8,0.8-2.8,1.1l-1.4-2.9l8.3-5.8h3.6v22.3h3.5v4.4
	h-13.4V470.9z"/>
<path class="st0" d="M513.7,466.4c0,1.4-0.3,2.8-0.9,4.1c-0.6,1.2-1.5,2.3-2.6,3.2c-1.2,0.9-2.6,1.6-4,2.1c-1.6,0.5-3.4,0.8-5.1,0.8
	c-0.6,0-1.1,0-1.5,0c-0.5,0-1-0.1-1.5-0.2l-1.2-4c0.7,0.2,1.3,0.3,2,0.4c0.6,0.1,1.2,0.1,1.7,0.1c1,0,2-0.1,2.9-0.4
	c0.8-0.3,1.6-0.7,2.3-1.2c0.6-0.5,1.1-1.1,1.5-1.9c0.4-0.7,0.5-1.5,0.5-2.4c0-1.1-0.4-2.3-1.2-3.1c-0.9-0.8-2-1.2-3.2-1.2
	c-0.8,0-1.7,0.1-2.5,0.2c-1.1,0.2-2.2,0.5-3.3,0.9l1.3-15.1h13.6l-0.8,4.6H504l-0.6,5.4c0.4-0.1,0.8-0.1,1-0.2s0.5,0,0.9,0
	c1.2,0,2.3,0.2,3.4,0.6c1,0.4,1.9,0.9,2.7,1.6c0.7,0.7,1.3,1.5,1.7,2.4C513.5,464.2,513.7,465.3,513.7,466.4z"/>
<path class="st0" d="M533.8,457c-0.3,0.8-0.8,1.6-1.4,2.2c-0.6,0.6-1.3,1-2.1,1.4c-0.9,0.4-1.9,0.5-2.9,0.5
	c-1.8,0.1-3.6-0.6-4.9-1.9c-1.3-1.4-1.9-3.2-1.8-5c0-1,0.2-1.9,0.5-2.8c0.3-0.8,0.8-1.6,1.4-2.2c0.6-0.6,1.3-1.1,2.1-1.4
	c0.9-0.3,1.8-0.5,2.8-0.5c1.9-0.1,3.8,0.6,5.1,2c0.6,0.6,1,1.3,1.3,2.1c0.3,0.9,0.4,1.9,0.4,2.8C534.3,455.1,534.1,456.1,533.8,457z
	 M529,450.8c-0.5-0.4-1.1-0.7-1.7-0.6c-0.9-0.1-1.7,0.4-2,1.2c-0.1,0.4-0.2,0.7-0.3,1.1c-0.1,0.5-0.1,1-0.1,1.5c-0.1,1,0.1,2,0.4,3
	c0.2,0.3,0.5,0.6,0.8,0.7c0.4,0.2,0.8,0.3,1.2,0.3c0.7,0.1,1.4-0.3,1.8-0.9c0.4-1,0.6-2,0.6-3.1C529.8,452.3,529.6,451.3,529,450.8
	L529,450.8z M527,475.4l14.6-27.8h3.8l-14.6,27.8H527z M551.4,471.8c-0.3,0.8-0.7,1.5-1.4,2.1c-0.6,0.6-1.3,1-2.1,1.4
	c-0.9,0.4-1.9,0.5-2.9,0.5c-1.8,0.1-3.6-0.6-4.9-1.9c-1.3-1.4-1.9-3.2-1.8-5c0-1,0.2-1.9,0.5-2.8c0.3-0.8,0.8-1.6,1.4-2.2
	c0.6-0.6,1.3-1.1,2.1-1.4c0.9-0.3,1.8-0.5,2.8-0.5c1.9-0.1,3.8,0.6,5.1,2c0.6,0.6,1,1.3,1.3,2.1c0.3,0.9,0.4,1.9,0.4,2.8
	C551.9,469.8,551.7,470.8,551.4,471.8L551.4,471.8z M546.6,465.5c-0.5-0.4-1.1-0.7-1.7-0.6c-0.9-0.1-1.7,0.4-2,1.2
	c-0.1,0.4-0.2,0.7-0.3,1.1c-0.1,0.5-0.1,1-0.1,1.5c-0.1,1,0.1,2,0.4,3c0.2,0.3,0.5,0.6,0.8,0.7c0.4,0.2,0.8,0.3,1.2,0.3
	c0.7,0.1,1.4-0.3,1.8-0.9c0.4-1,0.6-2,0.6-3.1C547.4,467.1,547.1,466,546.6,465.5L546.6,465.5z"/>
<path class="st2" d="M482.9,492.1v7.3H480v-13.9h2.9v6.3l4-6.3h3.4l-4.4,6.4l4.9,7.5h-3.7L482.9,492.1z"/>
<path class="st2" d="M493.7,495.1c0,0.7,0.2,1.3,0.6,1.8c0.4,0.4,1,0.7,1.6,0.6c1,0,1.9-0.4,2.6-1l1,1.6c-1.1,0.9-2.4,1.4-3.9,1.4
	c-0.7,0-1.4-0.1-2-0.4c-0.6-0.2-1.1-0.6-1.5-1.1c-0.4-0.5-0.8-1.1-1-1.7c-0.2-0.7-0.3-1.4-0.3-2.2c0-0.8,0.1-1.6,0.3-2.3
	c0.2-0.6,0.5-1.2,1-1.7c0.4-0.4,0.9-0.8,1.4-1c0.6-0.2,1.2-0.3,1.8-0.3c0.6,0,1.1,0.1,1.7,0.3c0.5,0.2,0.9,0.4,1.3,0.8
	c0.5,0.5,0.8,1.1,1,1.8c0.2,0.9,0.4,1.8,0.3,2.7v0.6L493.7,495.1L493.7,495.1z M496.8,492.1c0-0.2-0.1-0.4-0.3-0.6
	c-0.3-0.4-0.7-0.6-1.2-0.6c-0.5,0-0.9,0.2-1.2,0.6c-0.3,0.5-0.5,1.1-0.4,1.6l0,0h3.1V493C496.9,492.7,496.8,492.4,496.8,492.1
	L496.8,492.1z"/>
<path class="st2" d="M504.1,499.6c-0.5,0-1-0.1-1.5-0.4c-0.4-0.2-0.7-0.6-0.9-1c0-0.1-0.1-0.3-0.1-0.4c0-0.1,0-0.3-0.1-0.4
	s0-0.4,0-0.6s0-0.5,0-0.9v-7.6c0-0.7,0-1.2,0-1.7s-0.1-0.9-0.1-1.4l2.7-0.6c0.1,0.3,0.1,0.7,0.1,1c0,0.4,0,0.9,0,1.7v8
	c0,0.4,0,0.8,0,1.1s0,0.5,0,0.6c0,0.1,0,0.2,0,0.4c0,0.1,0.1,0.2,0.1,0.2c0.1,0.2,0.3,0.3,0.5,0.3h0.1h0.2l0.5,1.6
	C505.1,499.5,504.6,499.6,504.1,499.6z"/>
<path class="st2" d="M509.5,499.6c-0.5,0-1-0.1-1.5-0.4c-0.4-0.2-0.7-0.6-0.9-1c0-0.1-0.1-0.3-0.1-0.4c0-0.1,0-0.3-0.1-0.4
	s0-0.4,0-0.6s0-0.5,0-0.9v-7.6c0-0.7,0-1.2,0-1.7s0-0.9-0.1-1.4l2.7-0.6c0.1,0.3,0.1,0.7,0.1,1c0,0.4,0,0.9,0,1.7v8
	c0,0.4,0,0.8,0,1.1s0,0.5,0,0.6c0,0.1,0,0.2,0,0.4c0,0.1,0.1,0.2,0.1,0.2c0.1,0.2,0.3,0.3,0.5,0.3h0.1h0.2l0.5,1.6
	C510.6,499.5,510,499.6,509.5,499.6z"/>
<path class="st2" d="M514.6,495.1c0,0.7,0.2,1.3,0.6,1.8c0.4,0.4,1,0.7,1.6,0.6c1,0,1.9-0.4,2.6-1l1,1.6c-1.1,0.9-2.5,1.4-3.9,1.4
	c-0.7,0-1.4-0.1-2-0.4c-0.6-0.2-1.1-0.6-1.5-1.1c-0.4-0.5-0.8-1-1-1.7c-0.2-0.7-0.3-1.4-0.3-2.2c0-0.8,0.1-1.6,0.4-2.3
	c0.2-0.6,0.5-1.2,1-1.7c0.4-0.4,0.9-0.8,1.4-1c0.6-0.2,1.2-0.3,1.8-0.3c0.6,0,1.1,0.1,1.7,0.3c0.5,0.2,0.9,0.4,1.3,0.8
	c0.5,0.5,0.8,1.1,1,1.8c0.2,0.9,0.4,1.8,0.3,2.7v0.6L514.6,495.1L514.6,495.1z M517.7,492.1c0-0.2-0.1-0.4-0.3-0.6
	c-0.3-0.4-0.7-0.6-1.2-0.6c-0.5,0-0.9,0.2-1.2,0.6c-0.3,0.5-0.5,1.1-0.4,1.6l0,0h3.1V493C517.7,492.7,517.7,492.4,517.7,492.1
	L517.7,492.1z"/>
<path class="st2" d="M526.7,491.2c-0.6,0-1.3,0.3-1.6,0.9v7.2h-2.7v-6.8c0-0.6,0-1.2-0.1-1.8c-0.1-0.4-0.1-0.8-0.3-1.2l2.4-0.6
	c0.2,0.4,0.4,0.9,0.4,1.5c0.3-0.4,0.6-0.7,1-1c0.4-0.3,0.9-0.4,1.4-0.4c0.2,0,0.3,0,0.5,0c0.2,0,0.3,0.1,0.5,0.2l-0.7,2.4
	C527.2,491.3,527,491.2,526.7,491.2z"/>
<path class="st0" d="M592.1,144.7v-3.8l1.5-1.4l1.8-1.8l1.8-1.9c0.3-0.3,0.6-0.6,0.8-0.9c0.3-0.3,0.5-0.5,0.8-0.8
	c0.8-0.9,1.5-1.7,2.2-2.7c0.5-0.7,0.9-1.4,1.3-2.2c0.3-0.6,0.5-1.2,0.7-1.8c0.1-0.5,0.2-1,0.2-1.5c0.1-1-0.3-2.1-1-2.8
	c-0.7-0.5-1.5-0.8-2.3-0.8c-0.9,0-1.8,0.2-2.6,0.6c-1.1,0.5-2.1,1.2-3,2l-2.9-3.4c1.4-1.2,2.9-2.2,4.6-2.9c1.7-0.7,3.6-1,5.5-1
	c1.1,0,2.2,0.2,3.3,0.6c0.9,0.3,1.8,0.9,2.5,1.6c0.7,0.7,1.2,1.5,1.6,2.4c0.4,1,0.6,2,0.5,3.1c0,1.6-0.5,3.1-1.3,4.4
	c-1,1.7-2.1,3.2-3.4,4.7c-0.6,0.7-1.3,1.4-2.2,2.3s-1.7,1.7-2.6,2.5l-0.8,0.7c-0.2,0.2-0.5,0.4-0.8,0.6c0.2,0,0.5-0.1,0.9-0.1
	s0.7,0,1.1-0.1h1.2c0.4,0,0.8,0,1.1,0h8l-1.2,4.5L592.1,144.7z"/>
<path class="st0" d="M631.9,131.4c0,1.9-0.2,3.9-0.7,5.7c-0.4,1.6-1.1,3-2,4.4c-0.8,1.1-1.8,2.1-3,2.8c-1.2,0.7-2.5,1-3.8,1
	c-1.4,0-2.8-0.3-4-1c-1.2-0.7-2.2-1.6-3-2.8c-0.9-1.3-1.5-2.8-1.9-4.3c-0.5-1.9-0.7-3.8-0.7-5.7c0-1.9,0.2-3.9,0.7-5.7
	c0.4-1.6,1.1-3,2-4.4c0.8-1.2,1.8-2.1,3-2.8c1.2-0.7,2.5-1,3.9-1c1.4,0,2.8,0.3,4,1c1.2,0.7,2.2,1.6,3,2.8c0.9,1.3,1.5,2.8,1.9,4.3
	C631.7,127.6,631.9,129.5,631.9,131.4z M625.9,131.5c0-1.7-0.1-3.3-0.3-5c-0.1-1-0.4-2.1-0.7-3.1c-0.2-0.6-0.6-1.1-1.1-1.5
	c-0.4-0.3-0.9-0.4-1.4-0.4c-0.6,0-1.3,0.2-1.7,0.7c-0.5,0.6-0.9,1.3-1.1,2c-0.3,1-0.5,2.1-0.6,3.1c-0.1,1.2-0.2,2.5-0.2,4
	c0,1.7,0.1,3.3,0.3,5c0.1,1,0.4,2.1,0.7,3.1c0.2,0.6,0.6,1.2,1.2,1.5c0.4,0.3,0.9,0.4,1.4,0.4c0.6,0,1.3-0.3,1.7-0.7
	c0.5-0.6,0.9-1.3,1.1-2c0.3-1,0.5-2,0.6-3.1C625.8,134.3,625.9,133,625.9,131.5z"/>
<path class="st0" d="M651,126.3c-0.3,0.8-0.8,1.6-1.4,2.2c-0.6,0.6-1.3,1-2.1,1.4c-0.9,0.4-1.9,0.5-2.9,0.5
	c-1.8,0.1-3.6-0.6-4.9-1.9c-1.3-1.4-1.9-3.2-1.8-5c0-1,0.1-1.9,0.5-2.8c0.3-0.8,0.8-1.6,1.4-2.2c0.6-0.6,1.3-1.1,2.1-1.4
	c0.9-0.3,1.8-0.5,2.8-0.5c1.9-0.1,3.8,0.6,5.1,2c0.6,0.6,1,1.3,1.3,2.1c0.3,0.9,0.4,1.9,0.4,2.8C651.5,124.4,651.3,125.4,651,126.3z
	 M646.2,120.1c-0.4-0.4-1.1-0.7-1.7-0.6c-0.9-0.1-1.7,0.4-2,1.2c-0.1,0.4-0.2,0.7-0.3,1.1c-0.1,0.5-0.1,1-0.1,1.5
	c-0.1,1,0.1,2,0.4,3c0.2,0.3,0.5,0.6,0.8,0.7c0.4,0.2,0.8,0.3,1.2,0.3c0.7,0.1,1.4-0.3,1.8-0.9c0.4-1,0.6-2,0.6-3.1
	C647,121.7,646.7,120.6,646.2,120.1L646.2,120.1z M644.2,144.7l14.6-27.8h3.8L648,144.7L644.2,144.7z M668.5,141.1
	c-0.3,0.8-0.8,1.6-1.4,2.2c-0.6,0.6-1.3,1-2.1,1.4c-0.9,0.4-1.9,0.5-2.9,0.5c-1.8,0.1-3.6-0.6-4.9-1.9c-1.3-1.4-1.9-3.2-1.8-5
	c0-1,0.1-1.9,0.5-2.8c0.3-0.8,0.8-1.6,1.4-2.2c0.6-0.6,1.3-1.1,2.1-1.4c0.9-0.3,1.8-0.5,2.8-0.5c1.9-0.1,3.8,0.6,5.1,2
	c0.6,0.6,1,1.3,1.3,2.1c0.3,0.9,0.4,1.9,0.4,2.8C669,139.1,668.8,140.1,668.5,141.1L668.5,141.1z M663.7,134.8
	c-0.4-0.4-1.1-0.7-1.7-0.6c-0.9-0.1-1.7,0.4-2,1.2c-0.1,0.4-0.2,0.7-0.3,1.1c-0.1,0.5-0.1,1-0.1,1.5c-0.1,1,0.1,2,0.4,3
	c0.2,0.3,0.5,0.6,0.8,0.7c0.4,0.2,0.8,0.3,1.2,0.3c0.7,0.1,1.4-0.3,1.8-0.9c0.4-1,0.6-2,0.6-3.1
	C664.5,136.4,664.3,135.4,663.7,134.8L663.7,134.8z"/>
<path class="st2" d="M600.1,166.6c-0.4,0.6-0.9,1-1.5,1.4c-0.6,0.3-1.2,0.6-1.9,0.6l-0.9,0.1h-1.1h-3.4v-13.9h2.8c0.4,0,0.8,0,1.3,0
	s0.8,0,1.1,0.1c0.6,0,1.1,0.2,1.6,0.4c0.5,0.2,1,0.6,1.4,1c0.6,0.7,1.1,1.4,1.4,2.3c0.3,1,0.5,2.1,0.5,3.2
	C601.5,163.5,601,165.2,600.1,166.6z M598.2,159.8c-0.1-0.6-0.3-1.2-0.5-1.7c-0.2-0.4-0.5-0.7-0.8-0.9c-0.4-0.2-0.9-0.3-1.4-0.3
	h-1.3v9.4h1.5c0.8,0,1.6-0.4,2-1.1c0.5-1,0.7-2.2,0.7-3.3C598.3,161.3,598.3,160.6,598.2,159.8z"/>
<path class="st2" d="M609.7,168.7c-0.2-0.2-0.4-0.4-0.6-0.7l-0.3,0.3c-0.1,0.1-0.2,0.2-0.3,0.2c-0.6,0.4-1.3,0.6-2.1,0.6
	c-0.9,0.1-1.9-0.2-2.6-0.8c-0.6-0.6-0.9-1.5-0.9-2.4c-0.1-1,0.4-2.1,1.2-2.7c1.1-0.6,2.4-0.9,3.7-0.9h0.3c0.1,0,0.2,0,0.3,0v-0.4
	c0-0.4,0-0.8-0.2-1.2c-0.2-0.2-0.5-0.3-1-0.3c-0.5,0-0.9,0.1-1.4,0.3c-0.6,0.2-1.1,0.5-1.6,0.9l-1.1-1.9c0.2-0.2,0.5-0.3,0.8-0.4
	c0.2-0.1,0.5-0.3,0.9-0.4c0.5-0.2,0.9-0.4,1.4-0.5c0.5-0.1,0.9-0.1,1.4-0.1c0.7,0,1.5,0.1,2.2,0.5c0.5,0.3,0.9,0.7,1.1,1.3
	c0.1,0.1,0.1,0.3,0.1,0.5c0,0.2,0,0.4,0,0.7v0.7l-0.1,3.4c0,0.3,0,0.5,0,0.7c0,0.2,0.1,0.4,0.1,0.6c0.1,0.2,0.2,0.3,0.3,0.5
	c0.2,0.2,0.3,0.3,0.5,0.5l-1.4,1.6C610.1,169,609.9,168.9,609.7,168.7z M606.3,164.5c-0.4,0.3-0.6,0.8-0.5,1.2c0,0.4,0.1,0.7,0.3,1
	c0.2,0.2,0.5,0.4,0.8,0.4c0.5,0,1.1-0.3,1.4-0.7v-2.2h-0.1C607.5,164.2,606.9,164.3,606.3,164.5L606.3,164.5z"/>
<path class="st2" d="M620.4,168c-0.1,0.1-0.3,0.2-0.5,0.3c-0.4,0.2-0.7,0.4-1.2,0.5c-0.4,0.1-0.9,0.2-1.3,0.2
	c-1.3,0.1-2.5-0.4-3.3-1.4c-0.8-1.1-1.3-2.5-1.2-3.9c0-1,0.2-2.1,0.6-3c0.5-1.1,1.5-2,2.7-2.3c0.4-0.1,0.9-0.2,1.3-0.2
	c0.3,0,0.7,0,1,0.1c0.3,0.1,0.6,0.2,0.9,0.3c0.2,0.1,0.3,0.2,0.5,0.3c0.2,0.1,0.4,0.3,0.5,0.4l-1.3,1.8c-0.2-0.2-0.5-0.4-0.8-0.6
	c-0.2-0.1-0.5-0.2-0.8-0.2c-0.6,0-1.1,0.3-1.3,0.8c-0.3,0.8-0.5,1.7-0.4,2.6c0,0.5,0,1.1,0.1,1.6c0.1,0.4,0.2,0.7,0.4,1
	c0.3,0.4,0.7,0.6,1.2,0.6c0.7,0,1.4-0.3,1.8-0.8l0.2-0.1l1.2,1.6C620.6,167.7,620.5,167.9,620.4,168z"/>
<path class="st2" d="M628.3,161.8c0-0.4,0-0.8-0.2-1.1c-0.2-0.2-0.5-0.4-0.8-0.3c-0.4,0-0.7,0.1-1.1,0.3c-0.4,0.2-0.7,0.4-1,0.7v7.3
	h-2.7v-11.8c0-0.5,0-0.9,0-1.4c0-0.3-0.1-0.7-0.2-1l2.7-0.6c0.1,0.4,0.1,0.7,0.1,1.1c0,0.4,0,0.9,0,1.4v2c0,0.2,0,0.3,0,0.5
	s0,0.3,0,0.4c0.4-0.4,0.8-0.6,1.3-0.8c0.5-0.2,1-0.3,1.6-0.3c0.6,0,1.2,0.1,1.7,0.4c0.5,0.2,0.8,0.6,1,1.1c0.1,0.1,0.1,0.3,0.1,0.4
	c0,0.1,0.1,0.3,0.1,0.4c0,0.1,0,0.3,0,0.5s0,0.4,0,0.6v7.2h-2.7V161.8z"/>
<path class="st0" d="M690.2,288.2c0,1.3-0.3,2.7-1,3.8c-0.7,1.2-1.7,2.2-2.9,3c-1.4,0.9-2.9,1.5-4.4,1.9c-1.9,0.5-3.8,0.7-5.7,0.7
	h-0.8c-0.4,0-0.7,0-1.1,0s-0.8-0.1-1.4-0.2l-1.3-3.7c0.5,0.1,1,0.2,1.5,0.2c0.4,0,0.9,0,1.5,0c1.3,0,2.6-0.1,3.8-0.5
	c1.1-0.3,2.1-0.7,3-1.3c0.8-0.5,1.4-1.2,1.9-1.9c0.5-0.8,0.7-1.6,0.7-2.5c0-0.6-0.2-1.3-0.5-1.8c-0.3-0.5-0.7-1-1.3-1.2
	c-0.5-0.2-1-0.3-1.5-0.4c-0.6-0.1-1.4-0.1-2.3-0.1h-1c-0.3,0-0.7,0-1,0v-4.5c0.5,0.1,0.9,0.1,1.4,0.1s0.9,0,1.4,0
	c3,0,4.4-1.1,4.4-3.2c0-0.8-0.3-1.6-0.8-2.1c-0.7-0.6-1.7-0.9-2.6-0.9c-1.2,0-2.4,0.2-3.5,0.7c-0.9,0.4-1.7,0.9-2.4,1.5l-2.8-3.4
	c1.4-1,2.9-1.9,4.5-2.5c1.6-0.6,3.3-0.9,5-0.9c1.2,0,2.3,0.2,3.5,0.5c1,0.3,1.9,0.8,2.8,1.5c0.8,0.6,1.4,1.4,1.8,2.2
	c1,2.1,0.8,4.6-0.5,6.5c-0.7,1-1.8,1.7-2.9,2.1c1.4,0.4,2.6,1.2,3.5,2.3C689.9,285.5,690.2,286.8,690.2,288.2z"/>
<path class="st0" d="M712.4,283c0,1.9-0.2,3.9-0.7,5.7c-0.4,1.6-1.1,3-2,4.4c-0.8,1.2-1.8,2.1-3,2.8c-1.2,0.7-2.5,1-3.8,1
	c-1.4,0-2.8-0.3-4-1c-1.2-0.7-2.2-1.6-3-2.8c-0.8-1.3-1.5-2.8-1.8-4.3c-0.5-1.9-0.7-3.8-0.7-5.7c0-1.9,0.2-3.9,0.7-5.7
	c0.4-1.6,1.1-3,2-4.4c0.8-1.1,1.8-2.1,3-2.8c1.2-0.7,2.5-1,3.9-1c1.4,0,2.8,0.3,4,1c1.2,0.7,2.2,1.6,3,2.8c0.9,1.3,1.5,2.8,1.9,4.3
	C712.2,279.2,712.4,281.1,712.4,283z M706.4,283.2c0-1.7-0.1-3.3-0.3-5c-0.1-1-0.4-2.1-0.7-3.1c-0.2-0.6-0.6-1.1-1.1-1.5
	c-0.4-0.3-0.9-0.4-1.4-0.4c-0.6,0-1.3,0.2-1.7,0.7c-0.5,0.6-0.9,1.3-1.1,2c-0.3,1-0.5,2-0.6,3.1c-0.1,1.2-0.2,2.5-0.2,4
	c0,1.7,0.1,3.3,0.3,5c0.1,1,0.4,2.1,0.7,3.1c0.2,0.6,0.6,1.1,1.1,1.5c0.4,0.3,0.9,0.4,1.4,0.4c0.6,0,1.3-0.3,1.7-0.7
	c0.5-0.6,0.9-1.3,1.1-2c0.3-1,0.5-2,0.6-3.1C706.3,286,706.4,284.6,706.4,283.2L706.4,283.2z"/>
<path class="st0" d="M731.5,278c-0.3,0.8-0.8,1.6-1.4,2.2c-0.6,0.6-1.3,1-2,1.3c-1,0.4-2,0.5-3,0.5c-1.8,0.1-3.6-0.6-4.9-1.9
	c-1.3-1.4-1.9-3.2-1.8-5c0-1,0.2-1.9,0.5-2.8c0.3-0.8,0.8-1.6,1.4-2.2c0.6-0.6,1.3-1.1,2.1-1.4c0.9-0.3,1.8-0.5,2.8-0.5
	c1.9-0.1,3.8,0.6,5.1,2c0.6,0.6,1,1.3,1.3,2.1c0.3,0.9,0.4,1.9,0.4,2.8C731.9,276.1,731.8,277.1,731.5,278z M726.7,271.8
	c-0.5-0.4-1.1-0.7-1.7-0.6c-0.9-0.1-1.7,0.4-2,1.2c-0.1,0.4-0.2,0.8-0.3,1.1c-0.1,0.5-0.1,1-0.1,1.5c-0.1,1,0.1,2,0.4,3
	c0.2,0.3,0.5,0.6,0.8,0.7c0.4,0.2,0.8,0.3,1.2,0.3c0.7,0.1,1.4-0.3,1.8-0.9c0.4-1,0.6-2,0.6-3.1
	C727.5,273.3,727.2,272.3,726.7,271.8L726.7,271.8z M724.7,296.4l14.6-27.8h3.8l-14.6,27.8H724.7z M749,292.7
	c-0.3,0.8-0.8,1.6-1.4,2.2c-0.6,0.6-1.3,1-2.1,1.4c-0.9,0.4-1.9,0.5-2.9,0.5c-1.8,0.1-3.6-0.6-4.9-1.9c-1.3-1.4-1.9-3.2-1.8-5
	c0-1,0.2-1.9,0.5-2.8c0.3-0.8,0.8-1.6,1.4-2.2c0.6-0.6,1.3-1.1,2.1-1.4c0.9-0.3,1.8-0.5,2.8-0.5c1.9-0.1,3.8,0.6,5.1,2
	c0.6,0.6,1,1.3,1.3,2.1c0.3,0.9,0.4,1.9,0.4,2.8C749.4,290.8,749.3,291.8,749,292.7z M744.2,286.5c-0.5-0.4-1.1-0.7-1.7-0.6
	c-0.9-0.1-1.7,0.4-2,1.2c-0.1,0.4-0.2,0.8-0.3,1.1c-0.1,0.5-0.1,1-0.1,1.5c-0.1,1,0.1,2,0.4,3c0.2,0.3,0.5,0.6,0.8,0.7
	c0.4,0.2,0.8,0.3,1.2,0.3c0.7,0.1,1.4-0.3,1.8-0.9c0.4-1,0.6-2,0.6-3.1C745,288.1,744.7,287,744.2,286.5L744.2,286.5z"/>
<path class="st2" d="M674.1,308.7v3.2h3.5v2.3h-3.5v6.2h-2.8v-13.9h7.5l-0.3,2.3H674.1z"/>
<path class="st2" d="M685.8,320.3c-0.2-0.2-0.4-0.4-0.6-0.7c-0.1,0.1-0.2,0.2-0.3,0.3c-0.1,0.1-0.2,0.2-0.3,0.2
	c-0.6,0.4-1.3,0.6-2.1,0.6c-0.9,0.1-1.9-0.2-2.6-0.8c-0.6-0.6-0.9-1.5-0.9-2.4c-0.1-1,0.4-2.1,1.2-2.7c1.1-0.6,2.4-0.9,3.8-0.8h0.3
	h0.3v-0.4c0-0.4,0-0.8-0.2-1.2c-0.2-0.2-0.5-0.3-1-0.3c-0.5,0-0.9,0.1-1.4,0.3c-0.6,0.2-1.1,0.5-1.6,0.9l-1.1-1.9
	c0.3-0.2,0.5-0.3,0.8-0.4s0.5-0.3,0.9-0.4c0.5-0.2,0.9-0.3,1.4-0.5c0.5-0.1,0.9-0.1,1.4-0.1c0.7,0,1.5,0.1,2.2,0.5
	c0.5,0.3,0.9,0.8,1.1,1.3c0.1,0.1,0.1,0.3,0.1,0.5c0,0.2,0,0.4,0,0.7v0.7l-0.1,3.4c0,0.3,0,0.5,0,0.7c0,0.2,0.1,0.4,0.1,0.6
	c0.1,0.2,0.2,0.3,0.3,0.5c0.2,0.2,0.3,0.3,0.5,0.5l-1.4,1.6C686.3,320.7,686.1,320.5,685.8,320.3z M682.4,316.2
	c-0.4,0.3-0.6,0.8-0.5,1.2c0,0.4,0.1,0.7,0.3,1c0.2,0.2,0.5,0.4,0.8,0.4c0.5,0,1.1-0.3,1.4-0.7v-2.2h-0.1
	C683.7,315.8,683,315.9,682.4,316.2z"/>
<path class="st2" d="M697.5,318.5c-0.2,0.4-0.5,0.8-0.9,1.1c-0.4,0.3-0.9,0.6-1.4,0.7c-0.6,0.2-1.2,0.3-1.8,0.3
	c-1.5-0.1-2.9-0.5-4.2-1.2l1-2c0.2,0.1,0.4,0.3,0.7,0.4c0.3,0.1,0.6,0.3,0.9,0.4c0.3,0.1,0.6,0.2,0.9,0.3c0.3,0.1,0.6,0.1,0.9,0.1
	c0.4,0,0.7-0.1,1-0.3c0.3-0.2,0.4-0.5,0.4-0.8c0-0.3-0.1-0.6-0.4-0.8c-0.4-0.2-0.8-0.4-1.2-0.5l-1.2-0.2c-0.4-0.1-0.7-0.2-1.1-0.4
	c-0.3-0.2-0.6-0.4-0.8-0.6c-0.2-0.2-0.3-0.5-0.4-0.8c-0.1-0.3-0.1-0.7-0.2-1c0-0.5,0.1-0.9,0.3-1.4c0.2-0.4,0.5-0.8,0.8-1.1
	c0.4-0.3,0.8-0.5,1.3-0.7c0.5-0.2,1.1-0.2,1.6-0.2c0.7,0,1.4,0.1,2.1,0.3c0.5,0.2,1.1,0.4,1.6,0.6l-0.9,1.8
	c-0.4-0.2-0.9-0.4-1.4-0.6c-0.4-0.1-0.8-0.2-1.2-0.2c-0.3,0-0.7,0.1-0.9,0.3c-0.2,0.2-0.4,0.4-0.4,0.7c0,0.2,0.1,0.5,0.3,0.6
	c0.3,0.2,0.6,0.3,1,0.4l1.3,0.3c0.5,0.1,0.9,0.3,1.3,0.5c0.3,0.2,0.5,0.4,0.7,0.6c0.4,0.5,0.6,1.1,0.6,1.7
	C697.9,317.6,697.7,318.1,697.5,318.5z"/>
<path class="st2" d="M706.9,318.5c-0.2,0.4-0.5,0.8-0.9,1.1c-0.4,0.3-0.9,0.6-1.4,0.7c-0.6,0.2-1.2,0.3-1.8,0.3
	c-1.5-0.1-2.9-0.5-4.1-1.2l1-2c0.2,0.1,0.4,0.3,0.7,0.4c0.3,0.1,0.6,0.3,0.9,0.4c0.3,0.1,0.6,0.2,0.9,0.3c0.3,0.1,0.6,0.1,0.9,0.1
	c0.4,0,0.7-0.1,1-0.3c0.3-0.2,0.4-0.5,0.4-0.8c0-0.3-0.1-0.6-0.4-0.8c-0.4-0.2-0.8-0.4-1.2-0.5l-1.2-0.2c-0.4-0.1-0.7-0.2-1.1-0.4
	c-0.3-0.2-0.6-0.4-0.8-0.6c-0.2-0.2-0.3-0.5-0.4-0.8c-0.1-0.3-0.1-0.7-0.2-1c0-0.5,0.1-0.9,0.3-1.4c0.2-0.4,0.5-0.8,0.8-1.1
	c0.4-0.3,0.8-0.5,1.3-0.7c0.5-0.2,1.1-0.2,1.6-0.2c0.7,0,1.4,0.1,2.1,0.3c0.5,0.2,1.1,0.4,1.6,0.6l-0.9,1.8
	c-0.4-0.2-0.9-0.4-1.4-0.6c-0.4-0.1-0.8-0.2-1.2-0.2c-0.3,0-0.7,0.1-0.9,0.3c-0.2,0.2-0.4,0.4-0.4,0.7c0,0.2,0.1,0.5,0.3,0.6
	c0.3,0.2,0.6,0.3,1,0.4l1.3,0.3c0.5,0.1,0.9,0.3,1.3,0.5c0.3,0.2,0.5,0.4,0.7,0.6c0.4,0.5,0.6,1.1,0.6,1.7
	C707.3,317.6,707.2,318.1,706.9,318.5z"/>
<path class="st2" d="M715.4,320.3c-0.2-0.2-0.4-0.4-0.6-0.7l-0.3,0.3c-0.1,0.1-0.2,0.2-0.3,0.2c-0.6,0.4-1.3,0.6-2.1,0.6
	c-0.9,0.1-1.9-0.2-2.6-0.8c-1.3-1.5-1.1-3.7,0.3-5c1.1-0.6,2.4-0.9,3.7-0.9h0.3h0.3v-0.4c0-0.4,0-0.8-0.2-1.2
	c-0.3-0.3-0.6-0.4-1-0.3c-0.5,0-0.9,0.1-1.4,0.3c-0.6,0.2-1.1,0.5-1.6,0.9l-1.1-1.9c0.2-0.2,0.5-0.3,0.8-0.4
	c0.2-0.1,0.5-0.3,0.9-0.4c0.5-0.2,0.9-0.3,1.4-0.5c0.5-0.1,0.9-0.1,1.4-0.1c0.7,0,1.5,0.1,2.2,0.5c0.5,0.3,0.9,0.8,1.1,1.3
	c0.1,0.2,0.1,0.3,0.1,0.5c0,0.2,0,0.4,0,0.7v0.7l-0.1,3.4c0,0.3,0,0.5,0,0.7c0,0.2,0,0.4,0.1,0.6c0.1,0.2,0.2,0.3,0.3,0.5
	c0.2,0.2,0.3,0.3,0.5,0.5l-1.4,1.6C715.8,320.7,715.6,320.6,715.4,320.3z M712,316.2c-0.4,0.3-0.6,0.8-0.5,1.2c0,0.4,0.1,0.7,0.3,1
	c0.2,0.2,0.5,0.4,0.8,0.4c0.5,0,1.1-0.3,1.4-0.7v-2.2h-0.1C713.3,315.8,712.6,315.9,712,316.2z"/>
<path class="st2" d="M725.2,319.7c-0.6,0.6-1.5,0.9-2.3,0.9c-0.6,0-1.2-0.1-1.8-0.4c-0.5-0.2-1-0.6-1.3-1c-0.4-0.5-0.7-1-0.8-1.6
	c-0.2-0.7-0.3-1.4-0.3-2.2c0-0.7,0.1-1.5,0.3-2.2c0.2-0.6,0.5-1.2,0.9-1.7c0.4-0.5,0.8-0.9,1.4-1.1c0.5-0.3,1.1-0.4,1.7-0.4
	c0.7,0,1.3,0.2,1.8,0.6c0-0.2-0.1-0.4-0.1-0.6c0-0.3,0-0.6,0-0.9v-3.5l2.6,0.4v10.6c0,0.6,0,1.2,0,1.6s0,0.8,0.1,1.1
	c0,0.2,0.1,0.5,0.1,0.7c0,0.1,0.1,0.3,0.1,0.4h-2.4C725.3,320.1,725.2,319.9,725.2,319.7z M723.4,312.1c-0.6,0-1.1,0.3-1.3,0.8
	c-0.3,0.8-0.5,1.7-0.4,2.5c0,0.5,0,0.9,0.1,1.4c0,0.3,0.1,0.6,0.3,0.9c0.1,0.2,0.3,0.4,0.6,0.5c0.3,0.1,0.6,0.2,0.9,0.1
	c0.3,0,0.5-0.1,0.7-0.2c0.2-0.1,0.4-0.3,0.6-0.5v-4.9C724.4,312.4,723.9,312.2,723.4,312.1L723.4,312.1z"/>
<path class="st2" d="M732.3,316.1c0,0.7,0.2,1.3,0.6,1.8c0.4,0.4,1,0.7,1.6,0.6c1,0,1.9-0.4,2.6-1l1,1.6c-1.1,0.9-2.5,1.4-3.9,1.4
	c-0.7,0-1.4-0.1-2-0.4c-0.6-0.2-1.1-0.6-1.5-1.1c-0.4-0.5-0.8-1.1-1-1.7c-0.2-0.7-0.4-1.4-0.3-2.2c0-0.8,0.1-1.6,0.3-2.3
	c0.2-0.6,0.5-1.2,1-1.7c0.4-0.4,0.9-0.8,1.4-1c0.6-0.2,1.2-0.3,1.8-0.3c0.6,0,1.1,0.1,1.7,0.3c0.5,0.2,0.9,0.4,1.3,0.8
	c0.5,0.5,0.8,1.1,1,1.8c0.2,0.9,0.4,1.8,0.3,2.7v0.6L732.3,316.1L732.3,316.1z M735.3,313.1c0-0.2-0.1-0.4-0.3-0.6
	c-0.3-0.4-0.7-0.6-1.2-0.6c-0.5,0-0.9,0.2-1.2,0.6c-0.3,0.5-0.5,1.1-0.4,1.6l0,0h3.1V314C735.4,313.7,735.4,313.4,735.3,313.1
	L735.3,313.1z"/>
<path class="st2" d="M755,313.6c0-0.4,0-0.8-0.2-1.2c-0.1-0.2-0.3-0.3-0.7-0.3c-0.3,0-0.6,0.1-0.9,0.2c-0.3,0.2-0.6,0.4-0.9,0.6v7.4
	h-2.5v-6.6c0-0.4,0-0.9-0.2-1.3c-0.2-0.2-0.5-0.4-0.8-0.3c-0.3,0-0.6,0.1-0.9,0.2c-0.3,0.1-0.6,0.3-0.9,0.6v7.4h-2.6v-7.1
	c0-0.4,0-0.7,0-1s0-0.5-0.1-0.7s-0.1-0.4-0.1-0.5c0-0.1-0.1-0.3-0.2-0.4l2.4-0.7c0.1,0.1,0.2,0.3,0.2,0.4c0,0.1,0.1,0.4,0.2,0.6
	c0.7-0.7,1.6-1,2.5-1c0.8,0,1.5,0.3,2.1,0.8l0.2,0.2c0.1,0.1,0.1,0.2,0.2,0.3c0.4-0.4,0.9-0.8,1.4-1c0.5-0.2,1-0.3,1.5-0.3
	c0.4,0,0.8,0.1,1.1,0.2c0.3,0.1,0.6,0.3,0.9,0.5c0.3,0.2,0.5,0.5,0.6,0.9c0.1,0.5,0.2,1.1,0.2,1.6v7.3h-2.6L755,313.6z"/>
<path class="st2" d="M762.7,308.5c-0.3,0.3-0.7,0.5-1.2,0.5c-0.4,0-0.9-0.2-1.2-0.5c-0.6-0.7-0.6-1.7,0-2.4c0.3-0.3,0.7-0.5,1.2-0.5
	c0.4,0,0.9,0.2,1.2,0.5c0.3,0.3,0.5,0.7,0.5,1.2C763.1,307.7,763,308.1,762.7,308.5z M760.1,310.3l2.7-0.4v10.5h-2.7V310.3z"/>
<path class="st2" d="M768.4,320.6c-0.6,0-1.2-0.1-1.8-0.4c-0.5-0.2-0.8-0.6-1-1.1c0-0.1-0.1-0.2-0.1-0.3c0-0.1,0-0.2,0-0.3
	c0-0.1,0-0.2,0-0.4s0-0.4,0-0.6v-5.6h-1v-1.8h1c0-0.5,0-0.9,0-1.3c0-0.4,0-0.7,0.1-1.1l2.7-0.7c0,0.5-0.1,1-0.1,1.5s0,1.1,0,1.6h2.4
	l-0.7,1.8h-1.7v5.1c0,0.3,0,0.5,0,0.8c0,0.2,0.1,0.4,0.2,0.5c0.1,0.1,0.2,0.2,0.3,0.3c0.2,0.1,0.4,0.1,0.6,0.1c0.1,0,0.3,0,0.4,0
	l0.6-0.1l0.3,1.6C769.9,320.4,769.2,320.6,768.4,320.6z"/>
<path class="st2" d="M680.1,341.5l-1.2-5.7c-0.1-0.5-0.2-0.9-0.3-1.4c-0.1-0.5-0.1-0.9-0.2-1.2s-0.1-0.7-0.1-0.9s-0.1-0.4-0.1-0.5
	l0,0.3c0,0.2,0,0.5-0.1,0.9c-0.1,0.4-0.1,0.8-0.2,1.3s-0.2,1-0.3,1.5l-1.2,5.7h-3.2l-3.3-14h3l1.2,5.5c0.1,0.7,0.3,1.3,0.3,1.8
	s0.2,1,0.2,1.5s0.1,0.7,0.1,1v0.3c0-0.1,0-0.4,0.1-0.6s0.1-0.6,0.2-1s0.1-0.8,0.2-1.3s0.2-1,0.3-1.4l1.2-5.6h3.1l1.3,6.2
	c0.1,0.3,0.1,0.7,0.2,1.1s0.1,0.8,0.2,1.2l0.2,1l0.1,0.4c0-0.1,0-0.3,0.1-0.7s0.1-0.8,0.2-1.3s0.1-0.9,0.2-1.4s0.2-0.9,0.3-1.2
	l1.1-5.3h2.9l-3.4,14L680.1,341.5z"/>
<path class="st2" d="M694,341.3c-0.3-0.2-0.5-0.4-0.6-0.7L693,341c-0.1,0.1-0.2,0.1-0.3,0.2c-0.6,0.4-1.3,0.6-2.1,0.6
	c-0.9,0.1-1.9-0.2-2.6-0.8c-0.6-0.6-0.9-1.5-0.9-2.4c-0.1-1,0.4-2.1,1.2-2.7c1.1-0.6,2.4-0.9,3.7-0.9h0.4h0.2v-0.4
	c0-0.4,0-0.8-0.2-1.2c-0.3-0.3-0.6-0.4-1-0.3c-0.5,0-1,0.1-1.4,0.3c-0.6,0.2-1.1,0.5-1.6,0.9l-1.1-1.9l0.4-0.3l0.4-0.2l0.4-0.2
	l0.5-0.2c0.5-0.2,0.9-0.3,1.4-0.5c0.4-0.1,0.9-0.2,1.4-0.1c0.8,0,1.5,0.1,2.2,0.5c0.5,0.3,0.9,0.8,1.2,1.3c0.1,0.2,0.1,0.3,0.1,0.5
	c0,0.2,0,0.4,0,0.7v0.7l-0.1,3.4c0,0.3,0,0.5,0,0.7c0,0.2,0.1,0.4,0.1,0.6c0.1,0.2,0.2,0.4,0.3,0.5c0.2,0.2,0.3,0.3,0.5,0.5
	l-1.4,1.6C694.5,341.7,694.2,341.5,694,341.3z M690.5,329.8c-0.6,0.6-1.6,0.6-2.3,0c-0.3-0.3-0.5-0.7-0.5-1.1c0-0.4,0.2-0.8,0.5-1.1
	c0.3-0.3,0.7-0.5,1.2-0.5c0.4,0,0.8,0.2,1.1,0.5c0.3,0.3,0.5,0.7,0.5,1.1C691,329.1,690.8,329.5,690.5,329.8L690.5,329.8z
	 M690.6,337.2c-0.4,0.3-0.6,0.8-0.6,1.2c0,0.4,0.1,0.7,0.3,1c0.2,0.2,0.5,0.4,0.9,0.4c0.5,0,1.1-0.3,1.4-0.7l0-2.2h-0.1
	C691.9,336.8,691.3,336.9,690.6,337.2L690.6,337.2z M694.7,329.8c-0.3,0.3-0.7,0.5-1.1,0.5c-0.4,0-0.8-0.2-1.1-0.5
	c-0.6-0.6-0.6-1.6,0-2.3c0.3-0.3,0.7-0.5,1.2-0.5c0.4,0,0.8,0.2,1.1,0.5c0.3,0.3,0.5,0.7,0.5,1.1
	C695.2,329.1,695.1,329.5,694.7,329.8L694.7,329.8z"/>
<path class="st2" d="M702.3,333.2c-0.6,0-1.3,0.3-1.6,0.9v7.2H698v-6.8c0-0.6,0-1.2-0.1-1.8c0-0.4-0.1-0.8-0.3-1.2l2.4-0.6
	c0.3,0.4,0.4,0.9,0.4,1.5c0.3-0.4,0.6-0.7,1-1c0.4-0.3,0.9-0.4,1.4-0.4c0.2,0,0.3,0,0.5,0c0.2,0,0.3,0.1,0.5,0.2l-0.7,2.4
	C702.8,333.3,702.6,333.2,702.3,333.2z"/>
<path class="st2" d="M715.6,334.6c0-0.4,0-0.8-0.2-1.2c-0.1-0.2-0.3-0.3-0.7-0.3c-0.3,0-0.6,0.1-0.9,0.2c-0.3,0.2-0.6,0.4-0.9,0.6
	v7.4h-2.5v-6.6c0-0.4,0-0.9-0.2-1.3c-0.2-0.2-0.5-0.4-0.7-0.3c-0.3,0-0.6,0.1-0.9,0.2c-0.3,0.1-0.6,0.3-0.9,0.6v7.4h-2.6v-7.1
	c0-0.4,0-0.7,0-1c0-0.2,0-0.5-0.1-0.7c0-0.2-0.1-0.3-0.1-0.5c0-0.1-0.1-0.3-0.2-0.4l2.4-0.7c0.1,0.1,0.2,0.3,0.2,0.4
	c0.1,0.2,0.1,0.4,0.2,0.6c0.7-0.7,1.6-1,2.5-1c0.8,0,1.5,0.3,2.1,0.8c0.1,0.1,0.1,0.1,0.2,0.2c0.1,0.1,0.1,0.2,0.2,0.3
	c0.4-0.4,0.9-0.8,1.4-1c0.5-0.2,1-0.3,1.5-0.3c0.4,0,0.8,0.1,1.1,0.2c0.3,0.1,0.6,0.3,0.9,0.5c0.3,0.2,0.5,0.5,0.6,0.9
	c0.1,0.5,0.2,1.1,0.2,1.6v7.3h-2.6L715.6,334.6z"/>
<path class="st2" d="M723.1,337.1c0,0.7,0.2,1.3,0.6,1.8c0.4,0.4,1,0.7,1.6,0.6c1,0,1.9-0.4,2.6-1l1,1.6c-1.1,0.9-2.5,1.4-3.9,1.4
	c-0.7,0-1.4-0.1-2-0.4c-0.6-0.2-1.1-0.6-1.5-1.1c-0.4-0.5-0.8-1.1-1-1.7c-0.2-0.7-0.4-1.4-0.3-2.2c0-0.8,0.1-1.6,0.3-2.3
	c0.2-0.6,0.5-1.2,1-1.7c0.4-0.4,0.9-0.8,1.4-1c0.6-0.2,1.2-0.3,1.8-0.3c0.6,0,1.1,0.1,1.7,0.3c0.5,0.2,0.9,0.4,1.3,0.8
	c0.5,0.5,0.8,1.1,1,1.8c0.2,0.9,0.4,1.8,0.3,2.7v0.6L723.1,337.1L723.1,337.1z M726.2,334.1c0-0.2-0.1-0.4-0.3-0.6
	c-0.3-0.4-0.7-0.6-1.2-0.6c-0.5,0-0.9,0.2-1.2,0.6c-0.3,0.5-0.5,1.1-0.4,1.6l0,0h3.1V335C726.2,334.7,726.2,334.4,726.2,334.1
	L726.2,334.1z"/>
<path class="st2" d="M739.2,338.8c-0.3,0.8-0.8,1.4-1.4,2c-0.3,0.3-0.7,0.5-1.1,0.6c-0.4,0.1-0.8,0.2-1.2,0.2
	c-0.4,0-0.9-0.1-1.3-0.2c-0.4-0.2-0.7-0.4-1-0.7c0,0.1-0.1,0.3-0.1,0.4c0,0.1-0.1,0.2-0.2,0.3h-2.4c0.1-0.1,0.1-0.2,0.1-0.3
	c0-0.1,0.1-0.3,0.1-0.4c0-0.1,0-0.3,0-0.6s0-0.5,0-0.9v-9.5c0-0.6,0-1.1,0-1.5c0-0.3-0.1-0.7-0.1-1l2.7-0.6c0,0.4,0.1,0.6,0.1,0.9
	s0,0.6,0,0.9v2.4c0,0.1,0,0.3,0,0.5c0,0.1,0,0.3,0,0.4c0.6-0.6,1.4-0.9,2.2-0.8c0.6,0,1.2,0.1,1.7,0.4c0.5,0.2,0.9,0.6,1.3,1
	c0.4,0.5,0.6,1,0.8,1.6c0.2,0.7,0.3,1.4,0.3,2.2C739.7,337,739.6,337.9,739.2,338.8z M736.6,335.1c0-0.2,0-0.5-0.1-0.7
	c-0.1-0.4-0.3-0.7-0.5-1c-0.3-0.2-0.6-0.3-0.9-0.3c-0.3,0-0.6,0.1-0.9,0.3c-0.2,0.2-0.4,0.3-0.6,0.5v4.7c0.2,0.2,0.4,0.3,0.6,0.5
	c0.3,0.2,0.6,0.2,0.9,0.2c0.6,0.1,1.1-0.3,1.3-0.8c0.1-0.3,0.2-0.6,0.2-0.9c0-0.5,0.1-1,0.1-1.4
	C736.7,335.6,736.7,335.3,736.6,335.1L736.6,335.1z"/>
<path class="st2" d="M746,333.2c-0.6,0-1.3,0.3-1.6,0.9v7.2h-2.7v-6.8c0-0.6,0-1.2-0.1-1.8c0-0.4-0.1-0.8-0.3-1.2l2.4-0.6
	c0.3,0.4,0.4,0.9,0.4,1.5c0.3-0.4,0.6-0.7,1-1c0.4-0.3,0.9-0.4,1.4-0.4c0.2,0,0.3,0,0.5,0c0.2,0,0.3,0.1,0.5,0.2l-0.7,2.4
	C746.5,333.3,746.3,333.2,746,333.2z"/>
<path class="st2" d="M754.6,340.6c-0.7,0.7-1.7,1-2.7,1c-0.7,0-1.3-0.1-1.9-0.5c-0.5-0.2-0.9-0.7-1.1-1.2c-0.1-0.3-0.1-0.5-0.2-0.8
	c0-0.3,0-0.7,0-1.2v-6.6l2.6-0.5v6.6c0,0.4,0,0.7,0.1,1.1c0,0.2,0.1,0.4,0.2,0.6c0.1,0.2,0.2,0.3,0.4,0.4c0.2,0.1,0.4,0.1,0.6,0.1
	c0.2,0,0.3,0,0.5-0.1c0.2,0,0.3-0.1,0.5-0.2c0.2-0.1,0.3-0.2,0.4-0.3c0.1-0.1,0.2-0.2,0.3-0.4v-7.2l2.6-0.5v7.8c0,0.3,0.1,0.7,0.2,1
	c0.1,0.3,0.3,0.6,0.5,0.9l-1.9,1.1C755,341.4,754.8,341,754.6,340.6z M751.6,329.7c-0.6,0.6-1.6,0.6-2.2,0c-0.6-0.6-0.6-1.6,0-2.2
	c0.3-0.3,0.7-0.5,1.1-0.5c0.4,0,0.8,0.2,1.1,0.5C752.2,328.2,752.2,329.1,751.6,329.7L751.6,329.7z M755.9,329.7
	c-0.6,0.6-1.6,0.6-2.2,0c0,0,0,0,0,0c-0.3-0.3-0.4-0.7-0.4-1.1c0-0.4,0.2-0.8,0.5-1.1c0.3-0.3,0.7-0.5,1.1-0.5
	c0.4,0,0.8,0.2,1.1,0.5C756.5,328.2,756.5,329.1,755.9,329.7L755.9,329.7z"/>
<path class="st2" d="M766.1,340.6c-0.1,0.1-0.3,0.2-0.5,0.3c-0.4,0.2-0.7,0.4-1.2,0.5c-0.4,0.1-0.9,0.2-1.3,0.2
	c-1.3,0.1-2.5-0.4-3.3-1.4c-0.8-1.1-1.3-2.5-1.2-3.9c0-1,0.2-2.1,0.6-3c0.3-0.7,0.9-1.3,1.5-1.8c0.4-0.2,0.8-0.4,1.2-0.5
	c0.4-0.1,0.9-0.2,1.3-0.2c0.3,0,0.7,0,1,0.1c0.3,0.1,0.6,0.2,0.9,0.3c0.2,0.1,0.3,0.2,0.5,0.3l0.5,0.4l-1.3,1.8
	c-0.2-0.2-0.5-0.4-0.8-0.6c-0.2-0.1-0.5-0.2-0.8-0.2c-0.6,0-1.1,0.3-1.3,0.8c-0.3,0.8-0.5,1.7-0.4,2.6c0,0.5,0,1.1,0.1,1.6
	c0.1,0.3,0.2,0.7,0.4,1c0.3,0.4,0.7,0.6,1.2,0.6c0.7,0,1.4-0.3,1.8-0.8l0.2-0.1l1.2,1.6C766.4,340.4,766.2,340.5,766.1,340.6z"/>
<path class="st2" d="M768.1,329.8c0-0.5,0-0.9,0-1.3s-0.1-0.9-0.2-1.4l2.7-0.7c0.1,0.5,0.1,1,0.1,1.4c0,0.6,0,1.2,0,1.9v11.5h-2.7
	L768.1,329.8z M770.9,335.5l2.6-4.4h3.2l-3.3,4.3l4,6h-3.2L770.9,335.5z"/>
<path class="st2" d="M780.4,337.1c0,0.7,0.2,1.3,0.6,1.9c0.4,0.4,1,0.7,1.6,0.6c1,0,1.9-0.4,2.6-1l1,1.6c-1.1,0.9-2.5,1.4-3.9,1.4
	c-0.7,0-1.4-0.1-2-0.4c-0.6-0.2-1.1-0.6-1.5-1.1c-0.4-0.5-0.8-1.1-1-1.7c-0.2-0.7-0.4-1.4-0.3-2.2c0-0.8,0.1-1.6,0.3-2.3
	c0.2-0.6,0.5-1.2,1-1.7c0.4-0.4,0.9-0.8,1.4-1c0.6-0.2,1.2-0.3,1.8-0.3c0.6,0,1.1,0.1,1.7,0.3c0.5,0.2,0.9,0.4,1.3,0.8
	c0.5,0.5,0.8,1.1,1,1.8c0.2,0.9,0.4,1.8,0.3,2.7v0.6H780.4z M783.5,334.1c0-0.2-0.1-0.4-0.3-0.6c-0.3-0.4-0.7-0.6-1.2-0.6
	c-0.5,0-0.9,0.2-1.2,0.6c-0.3,0.5-0.5,1.1-0.4,1.6l0,0h3.1V335C783.5,334.7,783.5,334.4,783.5,334.1L783.5,334.1z"/>
<path class="st2" d="M793.6,334.7c0-0.4,0-0.8-0.2-1.2c-0.2-0.2-0.4-0.3-0.7-0.3c-0.3,0-0.6,0.1-0.9,0.3c-0.4,0.2-0.7,0.4-1,0.7v7.2
	h-2.7v-7.4c0-0.8-0.1-1.6-0.4-2.4l2.4-0.7c0.2,0.4,0.4,0.8,0.4,1.3l0.6-0.4c0.2-0.1,0.4-0.2,0.6-0.4c0.3-0.1,0.6-0.3,0.9-0.3
	c0.3-0.1,0.7-0.1,1-0.1c0.5,0,1.1,0.1,1.5,0.4c0.4,0.2,0.7,0.6,0.9,1.1c0.2,0.5,0.2,1,0.2,1.5v7.5h-2.6L793.6,334.7z"/>
<path class="st2" d="M54.3,494.1c0,0.6-0.1,1.2-0.3,1.8c-0.2,0.5-0.6,1-1,1.4c-0.4,0.4-0.9,0.7-1.4,0.9c-1.1,0.5-2.3,0.5-3.4,0
	c-0.5-0.2-1-0.5-1.4-0.9c-0.4-0.4-0.8-0.9-1-1.4c-0.5-1.1-0.5-2.4,0-3.5c0.2-0.5,0.6-1,1-1.4c0.4-0.4,0.9-0.7,1.4-0.9
	c1.1-0.5,2.3-0.5,3.4,0c0.5,0.2,1,0.5,1.4,0.9c0.4,0.4,0.8,0.9,1,1.4C54.2,492.8,54.3,493.5,54.3,494.1z M53.5,494.1
	c0-1-0.4-2-1.1-2.7c-0.3-0.3-0.7-0.6-1.2-0.8c-0.4-0.2-0.9-0.3-1.4-0.3c-0.5,0-1,0.1-1.4,0.3c-0.4,0.2-0.8,0.5-1.2,0.8
	c-0.7,0.7-1.1,1.7-1.1,2.7c0,0.5,0.1,1,0.3,1.5c0.2,0.5,0.4,0.9,0.8,1.2c0.3,0.3,0.7,0.6,1.2,0.8c0.5,0.2,0.9,0.3,1.4,0.3
	c0.5,0,1-0.1,1.4-0.3c0.4-0.2,0.8-0.5,1.2-0.8c0.3-0.3,0.6-0.8,0.8-1.2C53.5,495.1,53.6,494.6,53.5,494.1z M51.4,496.2
	c-0.4,0.3-0.9,0.4-1.3,0.4c-0.3,0-0.6-0.1-0.9-0.2c-0.3-0.1-0.5-0.3-0.7-0.5c-0.4-0.5-0.6-1.1-0.5-1.8c0-0.3,0-0.5,0.1-0.8
	c0-0.2,0.1-0.5,0.2-0.7c0.2-0.3,0.4-0.6,0.7-0.8c0.3-0.2,0.6-0.3,1-0.3c0.2,0,0.5,0,0.7,0.1c0.2,0.1,0.4,0.2,0.5,0.3l-0.3,0.5
	c-0.1-0.1-0.3-0.2-0.4-0.2c-0.2,0-0.3-0.1-0.5-0.1c-0.5,0-0.9,0.3-1.1,0.7c-0.1,0.2-0.1,0.4-0.2,0.6c-0.1,0.5-0.1,1,0,1.5
	c0,0.2,0.1,0.3,0.1,0.5c0.1,0.3,0.3,0.5,0.5,0.6c0.2,0.1,0.5,0.2,0.7,0.2c0.2,0,0.3,0,0.5-0.1c0.1-0.1,0.3-0.1,0.4-0.2L51.4,496.2z"
	/>
<path class="st2" d="M60.9,497.4H60l-2.2-6l1-0.2l1.4,4.1l0.2,0.5c0,0.2,0.1,0.3,0.1,0.4s0,0.1,0,0.1l0,0c0.1-0.3,0.2-0.7,0.3-1
	l1.4-4h1L60.9,497.4z"/>
<path class="st2" d="M67.6,497.3h-4v-0.7l3.3-4.5h-3v-0.8h4v0.8l-3.1,4.5H68L67.6,497.3z"/>
<path class="st2" d="M74.4,494.2c0,0.4,0,0.9-0.2,1.3c-0.1,0.4-0.3,0.7-0.5,1c-0.2,0.3-0.5,0.5-0.8,0.7c-0.6,0.3-1.3,0.3-1.9,0
	c-0.3-0.1-0.5-0.3-0.7-0.6c0,0.1,0,0.2,0,0.3c0,0.1-0.1,0.2-0.1,0.3h-0.9c0.1-0.2,0.1-0.4,0.1-0.5c0-0.2,0-0.5,0-0.9v-5.9
	c0-0.4-0.1-0.8-0.2-1.2l0.9-0.2c0.1,0.5,0.1,0.9,0.2,1.4v1.4c0,0.2,0,0.4,0,0.7c0.2-0.2,0.5-0.5,0.8-0.6c0.3-0.1,0.6-0.2,0.9-0.2
	c0.3,0,0.7,0.1,1,0.2c0.3,0.1,0.5,0.4,0.7,0.6c0.2,0.3,0.4,0.6,0.5,1C74.4,493.4,74.5,493.8,74.4,494.2z M73.4,494.2
	c0-0.3,0-0.7-0.1-1c0-0.2-0.1-0.4-0.3-0.6c-0.1-0.2-0.3-0.3-0.5-0.4c-0.2-0.1-0.4-0.1-0.7-0.1c-0.3,0-0.6,0.1-0.8,0.2
	c-0.3,0.1-0.5,0.3-0.7,0.6v3.1c0.2,0.2,0.4,0.4,0.7,0.5c0.3,0.1,0.5,0.2,0.8,0.2c0.2,0,0.4-0.1,0.6-0.1c0.2-0.1,0.3-0.2,0.5-0.4
	c0.1-0.2,0.2-0.5,0.3-0.7C73.4,495,73.4,494.6,73.4,494.2L73.4,494.2z"/>
<path class="st2" d="M78.3,497.4h-0.9l-2.2-6l1-0.2l1.4,4.1c0.1,0.2,0.1,0.3,0.2,0.5c0.1,0.2,0.1,0.3,0.1,0.4s0,0.1,0,0.1l0,0
	c0.1-0.4,0.2-0.7,0.3-1l1.4-4h1L78.3,497.4z"/>
</svg>
